<svg
    xmlns="http://www.w3.org/2000/svg"
    className="w-full h-full text-white fill-current" 
    viewBox="0 0 106.872 93.285"
  >
    <path
      d="M368.986 252.648c-.88-.977-2.615-3.028-3.854-4.556-2.28-2.814-2.56-3.421-2.113-4.587.158-.412 5.66-3.743 10.225-6.19 1.673-.898 3.136-1.724 3.252-1.836.482-.467-.17-.464-1.43.007-1.176.44-8.274 4.35-9.99 5.503-.34.23-.618.329-.617.222.001-.108.736-1.565 1.634-3.238l1.63-3.043 3.831-.424c3.706-.41 5.053-.682 4.772-.963-.074-.074-1.816-.008-3.87.148-2.056.155-3.802.217-3.881.137-.08-.08.457-1.304 1.192-2.722l1.337-2.578 1.126 1.193c1.617 1.712 1.951 1.938 3.358 2.265 1.5.349 1.63.123.303-.53-.526-.26-1.715-1.166-2.64-2.015l-1.683-1.543.417-.924c.229-.509.563-.955.742-.992.415-.086 2.603-4.166 2.634-4.913.03-.722 1.803-4.167 2.507-4.871.736-.736 2.313-.751 3.152-.03.343.295 1.716 2.778 3.271 5.917l2.68 5.408-.949.848c-.522.467-1.935 1.532-3.14 2.367-1.204.835-2.192 1.594-2.196 1.687-.004.093.235.169.53.169.676 0 2.944-1.503 4.645-3.08.715-.661 1.361-1.203 1.437-1.203.138 0 2.844 5.278 2.844 5.546 0 .142-4.325-.023-7.266-.276-.979-.085-1.52-.049-1.52.1 0 .337 1.916.664 5.52.943 1.734.134 3.356.285 3.604.337.466.096 1.594 1.892 1.44 2.291-.08.205-3.422 3.278-6.158 5.66-1.025.894-1.08.994-.74 1.334.34.34.515.234 2.337-1.416 1.083-.981 2.677-2.49 3.541-3.352 1.233-1.23 1.614-1.496 1.768-1.24.108.18 1.225 2.255 2.482 4.61 1.622 3.04 2.288 4.514 2.295 5.078.012 1.008-.89 2.835-2.365 4.79l-1.152 1.527-.936-.836c-2.332-2.083-14.773-14.205-15.58-15.181-.926-1.12-1.295-1.27-1.428-.58-.051.262 1.089 1.541 3.436 3.856 1.932 1.904 3.512 3.502 3.512 3.551 0 .183-12.03 9.403-12.268 9.403-.042 0-.797-.8-1.678-1.777zm23.786-5.259c-.694-1.398-1.471-2.796-1.726-3.106-.256-.31.273.872 1.175 2.627.901 1.755 1.678 3.152 1.726 3.106.048-.046-.481-1.228-1.175-2.627zm-18.45 1.346c-3.212-4.266-4.525-7.043-3.115-6.596.327.104.453-.07.667-.92.145-.576.219-1.092.164-1.147-.143-.143-2.85 1.251-2.85 1.467 0 .468 2.527 4.27 4.483 6.745 1.009 1.276 1.562 1.659.652.45zm-6.592-2.03c.237-1.439.475-1.766.753-1.035.418 1.1.784 1.044.655-.1-.147-1.305-1.265-3.175-1.689-2.823-.158.131-.288.361-.288.51 0 .15-.254.51-.564.801-.31.291-.563.638-.564.772 0 .473 1.193 3.046 1.365 2.94.095-.06.245-.539.332-1.065zm10.944-.562c-.36-.649-5.655-7.104-5.655-6.894 0 .33 5.546 7.288 5.81 7.288.035 0-.035-.177-.155-.394zm4.12-6.198c-.462-.786-2.198-2.858-2.489-2.97-.37-.141-.216.074 1.48 2.078.955 1.13 1.356 1.483 1.008.892zm10.13-.066c-.074-.192-.182-.3-.241-.24-.06.058-.04.215.041.347.222.36.352.29.2-.107zm-26.597-1.012c.171-.658-.006-.539-.435.289-.32.62-.324.688-.03.443.192-.159.4-.488.465-.732zm8.044-.245c0-.124-.102-.163-.226-.086-.124.077-.225.24-.225.365 0 .124.101.162.225.086.124-.077.226-.24.226-.365zm10.998-.168c.434-.276-1.591-2.021-3.524-3.037-.863-.454-1.63-.825-1.706-.825-.478 0 .13.614 1.987 2.004 1.168.874 2.188 1.693 2.267 1.82.172.28.571.295.976.038zm-7.619-2.185c0-.193-.101-.289-.225-.212-.124.076-.225.235-.225.351 0 .117.1.212.225.212.124 0 .225-.158.225-.351zm1.119-2.113c.31-.58.296-1.302-.029-1.503-.354-.218-1.09.727-1.09 1.4 0 .674.775.745 1.119.103zm-6.3-1.697c0-.058-.204-.214-.452-.346-.36-.193-.45-.172-.45.104 0 .196.195.346.45.346.248 0 .451-.047.451-.104zm5.963-3.516-1.274-2.54.2-2.265c.204-2.312.15-3.52-.156-3.52-.094 0-.23.297-.303.66-.073.362-.351 1.125-.619 1.695-.334.71-.443 1.254-.348 1.731.141.703 3.536 7.018 3.69 6.863.046-.046-.49-1.226-1.19-2.624zm9.435 1.92c-.074-.191-.182-.3-.241-.24-.06.059-.04.215.041.348.222.36.352.29.2-.108zm-11.804-2.188c-.006-.402-.244-1.179-.53-1.725l-.518-.992-.237.654c-.13.36-.304.821-.386 1.024-.102.25.091.596.596 1.07.941.882 1.087.878 1.075-.03zm5.537-2.327c-.925-1.83-1.293-2.865-1.58-4.451-.355-1.963-1.334-4.645-1.598-4.38-.33.329-.073 2.033.532 3.552 1.299 3.253 3.463 7.663 3.762 7.663.049 0-.453-1.073-1.116-2.384zm3.964.07c-.223-.221-.248-.195-.126.126.084.222.21.347.28.278.07-.07 0-.251-.154-.404zm-6.565-2.288c.005-.872-.126-.682-.297.432-.094.614-.07.794.078.564.118-.186.217-.634.219-.996zm3.62-3.714c-.629-1.252-1.192-2.277-1.252-2.277-.06 0 .418 1.06 1.063 2.357.644 1.296 1.208 2.321 1.252 2.277.043-.043-.435-1.104-1.063-2.357zm-6.91 1.655c.076-.2.039-.29-.09-.212-.122.076-.222.233-.222.35 0 .324.162.253.311-.138zm3.744-4.834c0-.124-.158-.225-.352-.225-.193 0-.288.101-.212.225.077.124.235.225.352.225.116 0 .212-.101.212-.225z"
      transform="translate(-325.946 -190.778)"
    />
    <path
      d="M380.594 263.212c-.48-.24-1.603-.985-2.494-1.656-1.932-1.455-6.884-5.94-6.884-6.235 0-.21 1.252-1.17 5.633-4.326 1.301-.937 3.38-2.513 4.619-3.502l2.253-1.8 2.929 2.856c1.61 1.571 3.782 3.63 4.825 4.577l1.897 1.721-1.287 1.573c-.707.865-2.04 2.29-2.963 3.166-3.928 3.732-6.297 4.74-8.528 3.626zm.17-6.706c-1.471-1.458-2.711-2.631-2.755-2.606-.227.131 1.44 1.93 3.23 3.485 1.117.971 2.07 1.767 2.117 1.77.047.002-1.12-1.19-2.591-2.649zm4.522-3.32c-1.442-1.673-2.676-3.043-2.74-3.043-.135 0 .069.28 1.486 2.029.958 1.184 3.652 4.057 3.803 4.057.04 0-1.107-1.37-2.55-3.043z"
      transform="translate(-325.946 -190.778)"
    />
    <path
      d="M384.622 263.617c1.853-.658 5.754-3.88 7.914-6.535l1.414-1.739 1.857 1.603c2.171 1.874 5.157 4.12 6.146 4.622.382.194.643.304.581.244-.062-.06-1.177-1.019-2.478-2.131a180.171 180.171 0 0 1-3.95-3.48l-1.586-1.459.973-1.229c.85-1.074 1.809-2.808 2.45-4.435.17-.432.627.26 3.298 5 3.385 6.006 3.673 6.812 2.939 8.236-.808 1.568-.887 1.58-11.109 1.56-6.741-.013-8.948-.08-8.449-.257zm10.252-2.084c0-.057-.228-.215-.507-.35-.487-.236-.49-.232-.07.105.46.368.577.418.577.245zm8.94-.613c-.071-.18-.125-.127-.135.136-.01.237.043.37.118.296.075-.075.083-.27.018-.432zm-10.517-3.226c.29-.31.478-.564.416-.564s-.35.254-.642.564c-.29.31-.478.563-.416.563s.35-.253.642-.563zm6.308-5.297c-.132-.248-.292-.45-.354-.45s-.004.202.129.45.292.451.354.451.004-.203-.129-.45zm-.823-1.474c-.074-.192-.182-.3-.241-.24-.06.058-.04.215.041.347.222.36.352.29.2-.107zM355.659 263.449c-1.145-.605-1.653-1.665-1.527-3.185.083-.997.404-1.764 1.74-4.15l3.81-6.816c1.194-2.138 2.236-3.888 2.316-3.888.079 0 .654.685 1.277 1.522.623.836 2.357 2.941 3.854 4.676 1.497 1.736 2.7 3.226 2.672 3.311-.051.162-5.359 3.85-8.802 6.115-1.096.722-1.943 1.362-1.881 1.424.259.259 4.825-2.391 8.98-5.211l2.404-1.631 1.652 1.669c1.601 1.616 5.281 4.628 7.002 5.73.463.296.843.615.844.708.002.093-5.294.164-11.77.159-11.07-.009-11.82-.035-12.571-.433zm15.208-1.996c-.706-.61-2.13-1.637-2.13-1.535 0 .143 2.035 1.72 2.219 1.72.069 0 .029-.083-.089-.185zm-9.564-6.03c0-.138-.185-.418-.41-.622-.388-.351-.496-.245-2.084 2.037-2.67 3.839-2.672 3.92-.02 1.31 1.382-1.361 2.514-2.588 2.514-2.726zm-6.316 3.623c0-.124-.098-.073-.218.113s-.219.44-.219.563c0 .124.098.074.219-.112.12-.186.218-.44.218-.564zm9.695-2.44c0-.04-.279-.32-.62-.62l-.619-.546.546.62c.51.58.693.723.693.546zm-2.478-.49c.161-.195.183-.338.052-.338-.126 0-.288.152-.359.338-.071.186-.095.338-.052.338.043 0 .205-.152.359-.338zm.917-1.383c-.661-.84-.589-1.126.435-1.71 1.238-.705 1.313-1.124.412-2.32-.412-.548-.817-1-.898-1.003-.289-.014-.847 2.061-.722 2.685.169.846-.23 1.048-.688.348-.367-.56-.808-.75-.808-.349 0 .117.569.827 1.263 1.578 1.31 1.415 1.82 1.806 1.006.771zm1.466-.777c.423-.468.423-.469-.184-.192-.334.152-.554.363-.489.47.164.265.192.254.673-.278zm1.25-1.052c.28-.357.273-.365-.085-.085-.375.295-.494.48-.309.48.047 0 .224-.178.394-.395z"
      transform="translate(-325.946 -190.778)"
    />
    <path
      d="M404.823 270.81c-.488-.588-1.152-2.314-1.157-3.005-.003-.426.355-1.323.9-2.254 2.16-3.692 3.15-7.696 3.15-12.738-.001-5.144-.791-8.616-2.94-12.925-1.378-2.763-2.882-4.81-5.393-7.345-3.337-3.37-7.166-5.802-10.943-6.953-.86-.262-1.666-.55-1.79-.64-.465-.336-2.973-5.152-2.782-5.343.182-.182 3.127.468 5.71 1.26 2.314.709 6.422 2.572 6.422 2.911 0 .105.228.262.507.349 1.094.343 5.84 3.953 5.393 4.103-.462.154-.29.502.248.502.642 0 2.326 1.702 4.168 4.214 5.92 8.075 7.773 20.732 4.409 30.101-.806 2.242-2.196 4.964-3.396 6.649-.82 1.151-1.119 1.408-1.633 1.408-.345 0-.738-.132-.873-.294zm-.322-3.448c-.075-.075-.27-.083-.432-.018-.18.072-.126.126.136.136.238.01.37-.043.296-.118zm5.898-5.317c.26-.768.464-1.503.455-1.634-.009-.13-.197.27-.417.889-.61 1.711-.733 2.141-.616 2.141.059 0 .32-.628.578-1.396zm1.035-4.094c.218-1.16.349-2.25.29-2.423-.096-.281-.29.654-.744 3.575-.282 1.815.058.953.454-1.152zm-3.79.94c-.071-.18-.124-.126-.135.136-.01.238.043.371.118.296.075-.075.083-.27.018-.432zm.222-1.14c-.063-.156-.114-.029-.114.28 0 .31.051.438.114.283a.87.87 0 0 0 0-.564zm.23-1.114c-.072-.18-.126-.126-.137.137-.01.237.044.37.119.295.075-.075.083-.269.018-.432zm3.84-3.616c-.05-.405-.093-.128-.094.616-.001.744.04 1.075.09.736.052-.338.053-.947.003-1.352zM351.729 270.034c-1.087-1.47-3.103-5.645-3.797-7.86-1.057-3.375-1.362-5.536-1.366-9.664-.004-4.426.355-6.82 1.576-10.48 1.717-5.15 4.276-9.382 7.757-12.83 4.882-4.836 9.757-7.484 17.065-9.271 1.147-.28 2.144-.452 2.214-.381.071.07-.462 1.272-1.184 2.67l-1.313 2.542-1.803.597c-7.309 2.422-13.456 7.738-16.882 14.599-3.91 7.83-3.784 18.706.297 25.696.51.873.926 1.712.926 1.866 0 .621-.787 2.719-1.177 3.138-.713.766-1.43.573-2.313-.622zm2.138-4.114c-.132-.247-.291-.45-.353-.45s-.004.203.128.45c.133.248.292.451.354.451s.004-.203-.129-.45zm20.47-45.09c.266-.426.27-.474.02-.212-.179.186-.477.476-.662.646-.272.247-.276.289-.02.213.176-.052.474-.343.662-.646z"
      transform="translate(-325.946 -190.778)"
    />
    <path
      d="m408.62 273.7-1.22-1.237.564-.623 1.89-2.088c5.948-6.577 9.216-16.74 8.443-26.26-.415-5.116-1.01-7.012-2.665-8.509-1.396-1.262-2.06-1.518-3.926-1.518-2.23 0-3.87-.811-6.21-3.07-2.102-2.03-2.027-2.234.905-2.468 2.158-.172 2.756.21 3.09.302.333.092 1.796.561 2.472 1.006.675.444 1.044.9 1.605 1.612 1.262 1.598 2.71 2.622 2.71 1.914 0-.36-2.39-4.319-3.012-4.99-.69-.744-4.296-1.642-5.206-1.295-1.003.38-3.772.267-5.35-.22-1.854-.574-4.291-2.12-4.187-2.657.045-.235.609-.604 1.423-.93 1.068-.428 1.794-.545 3.49-.563 1.921-.021 2.273.042 3.444.617.717.352 1.52.932 1.782 1.288.358.484.785.71 1.7.9.67.14 1.259.215 1.305.169.122-.123-2.395-2.998-3.132-3.577-.461-.364-1.253-.575-3.085-.824l-2.465-.335-1.52.62c-2.917 1.191-5.857 1.007-8.683-.544-1.5-.824-1.414-1.42.35-2.395 1.804-.997 2.86-.908 4.343-1.008 1.082-.073 2.227-.087 3.239.303.737.285 1.263.867 1.896 1.424.578.507 1.608.755 2.28.755.49 0 .573-.765.573-.864 0-.232-1.436-1.578-2.59-2.426-.863-.634-1.02-.666-3.636-.737-2.383-.064-2.848-.016-3.619.377-2.87 1.466-6.515 1.488-9.014.056-1.702-.975-1.542-1.515.787-2.667 1.669-.825 1.764-.843 4.274-.845 2.087-.001 2.617.065 2.832.356.145.197.518.42.827.494l1.65.396c.597.143 1.155.191 1.239.107.222-.222-.5-.701-2.663-1.765l-1.916-.942-3.224.07c-2.55.055-3.469-.01-4.393-.31-3.297-1.067-6.32-3.986-5.346-5.16.568-.685 2.52-1.137 4.852-1.124 1.947.01 2.431.094 3.56.612 1.696.779 2.31 1.278 3.45 2.802.877 1.174 1.132 1.343 4.045 2.685 1.71.789 3.156 1.385 3.215 1.327.058-.06-.188-.573-.548-1.143-.534-.847-.9-1.135-1.997-1.575-1.927-.774-3.031-1.638-4.101-3.211-1.387-2.04-2.552-5.513-2.176-6.491.189-.492 1.366-.325 3.502.496 3.776 1.452 5.447 3.447 5.732 6.845.163 1.94 2.07 6.038 3.37 7.238 1.58 1.461 2.973 2.486 3.099 2.281.068-.11.064-.57-.009-1.022-.104-.638-.411-1.06-1.378-1.886-2.31-1.974-3.462-4.622-3.513-8.078-.035-2.346.137-2.57 1.458-1.896 2.485 1.268 4.345 3.18 5.057 5.199.395 1.12.426 3.35.068 4.902-.218.942-.194 1.442.144 3.003.4 1.85.429 1.901 2.44 4.184 1.12 1.27 2.12 2.31 2.223 2.31.102 0 .185-.395.185-.877 0-.696-.19-1.103-.916-1.972-1.115-1.333-1.759-2.533-2.157-4.025-.58-2.169-.252-6.962.495-7.25.799-.306 4.041 3.33 4.9 5.496.551 1.391.437 3.766-.257 5.332-.397.894-.488 1.53-.488 3.414v2.314l1.373 2.672c1.85 3.6 1.924 3.661 2.152 1.737.115-.972.05-1.232-.538-2.115-1.084-1.632-1.41-2.939-1.41-5.66 0-1.916.1-2.697.473-3.694.758-2.026 1.097-1.905 2.855 1.022 2.293 3.817 2.491 7.204.582 9.963-.538.779-.58 1.024-.606 3.606-.024 2.331.07 3.165.589 5.25.394 1.582.712 3.722.88 5.913.732 9.552-1.589 18.3-6.807 25.652-1.855 2.615-3.96 5.06-4.353 5.06-.15 0-.824-.556-1.495-1.236zm10.78-15.668c0-.214-.07-.172-.193.112-.106.248-.194.603-.194.79 0 .212.072.17.194-.114.107-.247.194-.602.194-.788zm.785-3.167c.083-.635-.028-.384-.302.687-.238.93-.426 1.792-.42 1.916.026.434.592-1.609.722-2.603zm.304-2.412c-.057-.217-.103-.04-.103.395 0 .434.046.611.103.394a1.85 1.85 0 0 0 0-.789zm-2.03-.324c-.071-.18-.125-.126-.135.136-.01.238.043.371.118.296.075-.075.083-.269.018-.432zm2.259-1.592c-.054-.278-.098-.05-.098.508 0 .557.044.786.098.507a3.213 3.213 0 0 0 0-1.015zm-2.033.015c-.072-.18-.125-.127-.136.136-.01.237.043.37.118.296.075-.075.083-.27.018-.432zm2.028-6.086c-.072-.18-.125-.126-.136.136-.01.238.043.371.118.296.075-.075.083-.27.018-.432zm-1.352-8.114c-.072-.18-.125-.126-.136.136-.01.238.043.371.118.296.075-.075.083-.269.018-.432zm-5.787-4.565c0-.054-.101-.162-.225-.238-.124-.077-.225-.032-.225.1 0 .13.101.238.225.238s.225-.045.225-.1zm5.332-.633c-.063-.155-.114-.028-.114.282s.051.437.114.282a.87.87 0 0 0 0-.564zm.23-1.113c-.072-.18-.126-.126-.136.137-.01.237.043.37.118.295.075-.074.083-.269.018-.432zm-13.56-1.084a.524.524 0 0 0-.408-.222c-.16.002-.133.09.07.222.433.28.51.28.338 0zm15.176-3.381c-.019-.719-.036-.696-.197.254-.097.574-.288 1.252-.424 1.507-.136.255-.24.546-.23.647.055.554.868-1.747.85-2.408zm-20.077-1.958a1.85 1.85 0 0 0-.788 0c-.217.056-.04.103.394.103s.611-.047.394-.103zm16.79-2.55c.07-1.105.047-1.63-.055-1.24l-.177.677-.055-.676c-.047-.577-.082-.527-.24.338-.209 1.145-.018 3.62.241 3.13.091-.172.22-1.175.287-2.229zm-3.51.962c-.056-.219-.107-.094-.111.278-.005.372.042.551.103.399.062-.153.066-.457.008-.677zm.918-2.934c.224-.465.367-1.15.317-1.521-.086-.643-.103-.626-.36.338a34.71 34.71 0 0 1-.441 1.521c-.268.803.038.59.484-.338zm-21.576.306c0-.049-.153-.147-.338-.218-.186-.072-.338-.032-.338.088s.152.219.338.219c.185 0 .338-.04.338-.089zm25.551-.475c-.203-.31-.414-.563-.469-.563-.11 0 .102.408.44.845.388.502.41.298.03-.282zm-24.035-.249c-.075-.075-.27-.083-.432-.018-.18.072-.127.126.136.137.237.01.37-.044.296-.119zm16.248-5.949c-.024-1.421-.055-1.547-.19-.789l-.162.902-.032-1.108c-.017-.61-.094-1.047-.17-.971-.075.076-.063 1.068.027 2.206.195 2.467.57 2.296.527-.24zm-8.301 1.602c0-.11-.167-.265-.37-.343-.31-.12-.323-.086-.085.2.324.392.454.433.454.143zm4.886-2.673c-.056-.217-.103-.039-.103.395s.047.611.103.394a1.85 1.85 0 0 0 0-.789zm-6.611-.63c-.074-.19-.182-.299-.241-.24-.06.06-.04.216.041.348.222.36.352.29.2-.107zm-.84-1.604c-.19-.351-.35-.568-.355-.48-.016.267.508 1.314.608 1.214.051-.052-.062-.382-.253-.734zm2.569-4.366-.243-.556.116.564c.064.31.135.918.157 1.352l.041.789.086-.797c.047-.438-.024-1.046-.157-1.352zm-.424-.005c-.14-.846-.212-1.008-.23-.522-.03.819.24 2.33.355 1.984.043-.13-.014-.787-.125-1.462zm-9.37-3.545a1.459 1.459 0 0 0-.755-.963l-.807-.402c-.109-.054-.154.034-.1.195.054.162.292.322.53.357.528.078 1.008.695 1.008 1.296 0 .245.06.385.134.312.074-.074.069-.432-.01-.795zM347.738 274.091c-1.801-1.849-4.15-5.2-5.55-7.92-4.81-9.35-5.878-18.497-3.378-28.963.661-2.769.683-3.005.454-5.015-.2-1.762-.351-2.267-.918-3.067-1.477-2.085-1.535-5.078-.153-7.989.943-1.987 2.464-4.126 2.934-4.126.174 0 .494.523.725 1.184.329.944.412 1.87.412 4.59v3.407l-.845 1.619c-.826 1.582-.986 2.395-.644 3.269.134.342.505-.205 1.76-2.592 1.527-2.907 1.595-3.104 1.748-5.053.152-1.956.133-2.08-.536-3.494-.586-1.237-.694-1.731-.694-3.181 0-1.508.094-1.905.778-3.268.829-1.651 3.923-5.005 4.365-4.731.454.28.761 2.682.663 5.186-.112 2.873-.459 3.873-2.096 6.051-.724.964-1.007 1.552-1.007 2.094 0 .828.32 1.195.606.696.1-.176.893-1.106 1.76-2.068.867-.961 1.712-1.94 1.878-2.174.498-.706.993-4.346.722-5.32-.127-.46-.232-1.506-.233-2.326-.002-2.835 2.129-5.904 5.118-7.373.647-.317 1.24-.515 1.315-.439.32.32.54 1.95.42 3.105-.38 3.636-1.948 6.526-4.067 7.492-.56.255-1.074 1.6-.942 2.464.06.391.33.243 1.935-1.065 1.72-1.401 1.963-1.707 3.112-3.91 1.044-2 1.283-2.68 1.464-4.172.459-3.78 2.077-5.678 6.085-7.141 3.007-1.098 3.383-.905 2.967 1.523-.611 3.57-2.92 6.511-5.909 7.523-1.54.523-1.664.616-2.188 1.647-.305.601-.5 1.148-.432 1.216.068.068 1.534-.509 3.257-1.281 2.952-1.323 3.175-1.468 3.843-2.5 2.007-3.098 6.368-4.43 10.212-3.119.775.265 1.536.581 1.69.704.504.398.3 1.06-.636 2.076-1.21 1.313-2.765 2.29-4.736 2.976-1.43.497-1.903.55-4.34.487l-2.736-.07-2.185.975c-1.202.537-2.31 1.126-2.462 1.31-.24.288-.098.326 1.059.284 1.981-.071 3.07-.979 3-.963-.071.016 1.276-.381 2.301-.378 1.025.004 2.492.2 3.74.771 2.612 1.197 2.718 1.899.456 3.05-1.281.653-1.812.79-3.376.866-1.875.091-2.448-.03-5.574-1.19-.693-.256-1.708-.374-3.204-.372-2.04.003-2.247.047-3.041.633-1.635 1.207-2.993 2.378-2.993 2.581 0 .112.352.204.783.204.528 0 1.315-.324 2.422-.996.901-.548 1.43-.699 1.957-.782.87-.136 1.42-.156 2.122-.067.728.092 1.427.356 2.113.617 1.47.56 4.584 1.186 4.262 2.026-.174.453-2.102 1.333-3.97 1.812-1.901.488-3.981.32-5.987-.483-1.484-.594-1.57-.602-3.874-.37-2.643.268-2.5.185-4.838 2.815-.747.841-1.307 1.58-1.243 1.644.063.064.6-.007 1.195-.157.771-.194 1.343-.545 1.999-1.228 1.238-1.289 2.887-1.78 5.413-1.613 2.328.154 4.405.914 4.405 1.612 0 .561-1.546 1.585-3.739 2.476-1.936.787-3.303.923-4.956.494-1.253-.325-1.488-.324-2.704.003-.732.198-1.676.443-2.098.545-.423.102-1.03.447-1.348.766-.678.678-2.947 4.667-2.799 4.92.2.342 1.49-.654 2.936-2.268 2.111-2.355 2.741-2.64 5.809-2.624 2.45.012 3.492.261 3.492.835 0 .546-2.938 3.072-4.422 3.803-1.236.608-1.855.763-3.462.862-2.17.134-3.077.583-4.61 2.28-2.41 2.67-2.767 13.647-.67 20.648 1.656 5.528 4.392 10.388 8.185 14.54.632.692 1.149 1.399 1.149 1.571 0 .173-.536.844-1.191 1.49l-1.19 1.177zm2.074-2.605c0-.037-.38-.418-.845-.845l-.845-.777.776.846c.723.786.914.948.914.776zm-1.577-1.812c0-.043-.229-.271-.507-.507l-.507-.43.429.508c.403.476.585.61.585.429zm-8.396-24.32c-.046-.651-.083-.119-.083 1.183 0 1.301.037 1.834.083 1.183.045-.65.045-1.716 0-2.366zm-1.594-2.705c-.063-.155-.114-.028-.114.282s.051.436.114.281a.87.87 0 0 0 0-.563zm.225-1.803c-.062-.155-.113-.028-.113.282s.05.436.113.281a.87.87 0 0 0 0-.563zm.23-1.113c-.072-.18-.125-.126-.136.136-.01.238.044.37.118.296.075-.075.083-.27.018-.432zm.716-2.888c0-.213-.072-.171-.194.113-.106.248-.193.603-.193.789 0 .213.071.171.193-.113.107-.248.194-.603.194-.789zm.45-1.577c0-.214-.071-.172-.193.112-.107.248-.194.603-.194.79 0 .212.072.17.194-.114.106-.248.194-.602.194-.788zm14.001-6.311c.186-.12.237-.219.113-.219-.124 0-.377.099-.563.219-.186.12-.237.218-.113.218.124 0 .377-.098.563-.218zm-12.41-3.156c-.009-.223-.08-.184-.207.113-.266.62-.266.976 0 .564.12-.186.213-.49.206-.677zm3.352-1.378-.075-.988-.108 1.172c-.06.645-.026 1.09.074.989.101-.101.15-.629.109-1.173zm-3.178.087c-.057-.22-.107-.095-.112.277-.005.372.042.551.104.399.062-.153.066-.457.008-.676zm17.808-.873c-.075-.075-.27-.083-.432-.018-.18.072-.126.125.136.136.238.01.371-.043.296-.118zm7.158-4.372a2.738 2.738 0 0 0-.9-.193h-.452l.451.193c.248.107.654.194.901.194h.451zm-15.622-.777c-.041-.344.01-.574.113-.512.104.063.204-.712.223-1.721l.036-1.836-.284 1.578c-.156.868-.363 1.971-.46 2.452-.14.698-.114.853.136.77.193-.066.283-.344.236-.731zm-3.234-1.595c-.07-.07-.196.055-.28.278-.123.32-.097.347.126.126.154-.153.223-.335.154-.404zm-3.836-1.685-.003-1.014-.186.902c-.103.495-.182 1.205-.177 1.577.009.66.014.663.19.113.1-.31.179-1.02.177-1.578zm4.291.113c-.005-.362-.042-.34-.187.113-.246.77-.246 1.363 0 .788a2.64 2.64 0 0 0 .187-.901zm8.754-2.183c-.072-.18-.125-.127-.136.136-.01.237.044.37.119.296.074-.075.082-.27.017-.432zm-5.727-3.114c.074-.879.05-1.24-.058-.901-.18.556-.303 2.642-.146 2.46.045-.051.137-.753.204-1.559zm5.018-1.52c.179-.59.32-1.274.314-1.522-.006-.248-.195.208-.42 1.014-.224.806-.48 1.668-.566 1.916-.141.401-.13.408.094.058.139-.216.4-.876.578-1.465zm21.213-1.714c.405-.48.405-.481-.06-.09-.257.217-.58.394-.719.394a.49.49 0 0 0-.376.205c-.252.407.757-.037 1.155-.509zm-17.654-1.386c.094-.614.07-.794-.078-.564-.118.186-.217.634-.218.996-.005.872.125.682.296-.432zm-3.075.07c-.072-.18-.125-.126-.136.137-.01.237.043.37.118.295.075-.075.083-.269.018-.432zm9.989-2.319c.303-.87.002-.518-.77.897l-.613 1.127.574-.677c.316-.371.68-.978.809-1.347z"
      transform="translate(-325.946 -190.778)"
    />
    <path
      d="M340.098 277.921c-8.23-8.495-12.976-18.972-13.965-30.82-.773-9.259.854-18.146 4.945-27.003 4.116-8.912 11.747-17.287 20.557-22.563 4.381-2.624 7.686-4.019 13.7-5.783l3.02-.885h9.451l-.104 1.248c-.202 2.441-1.27 3.137-6.753 4.404-5.424 1.254-8.49 2.278-12.08 4.037-6.253 3.062-12.569 8.049-16.853 13.304-6.81 8.356-10 17.752-10.003 29.467-.002 7.755 1.092 12.644 4.271 19.1 2.491 5.057 4.813 8.276 8.674 12.025 1.194 1.16 2.141 2.185 2.105 2.279-.037.093-.694.689-1.46 1.323-.766.635-1.574 1.46-1.795 1.835-.221.375-.569.681-.773.681-.204 0-1.526-1.192-2.937-2.649zm-8.605-30.422c-.058-.22-.108-.094-.113.277-.005.372.042.552.104.4.062-.153.066-.458.008-.677zm-.215-5.63c-.043-.841-.079-.212-.08 1.4 0 1.611.036 2.3.08 1.53.044-.77.044-2.088 0-2.93zm-4.737-2.485c-.052-.343-.095-.116-.097.504-.002.62.04.9.094.623s.055-.784.003-1.127zm4.954-1.243c-.053-.279-.097-.05-.097.507 0 .558.044.786.097.507a3.213 3.213 0 0 0 0-1.014zm-4.734-1.235c-.057-.22-.108-.094-.112.277-.005.372.042.552.104.4.061-.154.065-.458.008-.677zm4.95-.342c-.063-.155-.114-.029-.114.281 0 .31.051.437.114.282a.87.87 0 0 0 0-.563zm-4.725-1.461c-.057-.22-.107-.095-.112.277-.005.372.042.552.104.399.062-.153.066-.457.008-.676zm.223-1.23c-.071-.18-.125-.126-.136.136-.01.238.044.37.119.296.075-.075.083-.27.017-.432zm.676-3.606c-.072-.18-.125-.127-.136.136-.01.238.044.37.119.296.074-.075.082-.27.017-.432zm1.745-5.367c.105-.392.087-.46-.058-.226-.115.186-.277.592-.36.902-.104.392-.086.46.059.225.114-.186.276-.591.36-.901zm18.183-23.61c.28-.357.272-.365-.085-.084-.217.17-.395.347-.395.394 0 .185.185.066.48-.31zm2.45-1.768c0-.062-.457.202-1.014.585-.558.384-1.014.749-1.014.81 0 .063.456-.2 1.014-.584.557-.384 1.013-.749 1.013-.81zm26.044-6.211.43-.486-.62.4c-.64.41-.76.572-.43.572.105 0 .384-.219.62-.486zm.591-2.035c-.141-.14-.172.007-.089.419.097.471.153.528.219.218.049-.23-.01-.517-.13-.637zM414.577 279.391c-.737-.78-1.679-1.704-2.092-2.054l-.752-.636 2.674-2.742c3.069-3.148 3.775-3.998 5.644-6.8 3.288-4.928 5.552-10.786 6.52-16.87.551-3.462.547-11.266-.006-14.457-.882-5.076-2.116-8.978-4.206-13.299-3.8-7.856-8.986-13.79-16.332-18.69-5.42-3.614-10.673-5.717-17.8-7.127-2.785-.55-4.525-1.139-5.395-1.823-.837-.659-1.546-2.64-1.54-3.205.004-.564-.016-.91-.016-.91s-.025.005.804.01c.829.005 1.641.12 4.12.106 4.115-.024 4.682.022 6.534.523 8.612 2.33 15.873 6.096 22.08 11.453 6.588 5.686 11.978 13.54 15.19 22.133 2.04 5.455 2.782 9.86 2.813 16.688.03 6.78-.306 9.758-1.692 14.985-2.13 8.033-6.625 15.625-12.983 21.93l-2.224 2.204zm16.495-25.698c-.062-.155-.113-.028-.113.282s.05.436.113.281a.87.87 0 0 0 0-.563zm-4.506-.902c-.062-.155-.113-.028-.113.282s.05.437.113.282a.87.87 0 0 0 0-.564zm5.273-2.124c.232-1.342.413-2.744.403-3.116-.012-.394-.1-.159-.214.564-.108.681-.35 2.027-.537 2.99-.372 1.902-.415 2.34-.209 2.135.074-.074.324-1.232.557-2.573zm-5.043 1.011c-.072-.18-.125-.126-.136.137-.01.237.044.37.118.295.075-.074.083-.269.018-.432zm.226-1.126c-.072-.18-.126-.127-.137.136-.01.237.044.37.119.296.075-.075.083-.27.018-.432zm5.42-9.03c-.044-.775-.08-.14-.08 1.409 0 1.55.036 2.183.08 1.408.044-.774.044-2.042 0-2.817zm-.237-4.17c-.057-.217-.103-.04-.103.395 0 .434.046.611.103.394a1.85 1.85 0 0 0 0-.789zm-.224-1.798c-.058-.22-.108-.095-.113.277-.005.372.042.551.104.399.062-.153.066-.457.008-.676zm-.233-1.47c-.062-.155-.113-.028-.113.282s.05.437.113.282a.87.87 0 0 0 0-.564zm-.225-1.352c-.062-.155-.114-.028-.114.282s.051.436.114.281a.87.87 0 0 0 0-.563zm-.22-1.113c-.072-.18-.126-.126-.137.136-.01.238.044.371.119.296.075-.075.083-.27.017-.432zm-8.03-18.2c-.5-.736-1.013-1.402-1.139-1.48-.126-.078.236.524.805 1.338.569.814 1.081 1.48 1.138 1.48.057 0-.305-.602-.805-1.338zm-1.362-1.902c0-.047-.178-.224-.394-.394-.358-.28-.366-.273-.086.085.295.375.48.494.48.309zm-20.165-15.467a.524.524 0 0 0-.408-.222c-.161.002-.133.091.07.222.432.28.51.28.338 0zm-1.465-.676c-.186-.12-.44-.218-.563-.218-.124 0-.073.098.112.218.186.12.44.219.564.219.124 0 .073-.099-.113-.219zm-1.802-.676c-.186-.12-.44-.218-.564-.218-.124 0-.073.098.113.218s.44.219.563.219c.124 0 .073-.099-.112-.219zm-2.253-.789c-.434-.167-.941-.304-1.127-.304-.186 0 .017.137.45.304.434.167.941.304 1.127.304.186 0-.017-.137-.45-.304zm-2.99-.925c-.075-.075-.27-.083-.432-.018-.18.072-.127.126.136.137.237.01.37-.044.295-.119zm-.902-.225c-.075-.075-.269-.083-.432-.018-.18.072-.126.125.137.136.237.01.37-.043.295-.118zm-1.967-.446c-1.18-.293-4.717-.878-6.646-1.1-.893-.103.711.229 4.844 1.003 2.54.475 3.55.53 1.802.097z"
      transform="translate(-325.946 -190.778)"
    />
    <path
      d="M377.775 270.422c-1.613 0-3.618-.734-4.54-1.711-.922-.978-.977-3.04-.977-3.04l1.747-.015c-.003.973.256 1.824.859 2.421.74.733 1.905.977 2.933.98.903.001 1.917-.218 2.578-.848.648-.616.908-1.494.997-2.52l1.774-.01s-.108 2.133-1.016 3.092c-.909.959-2.808 1.65-4.355 1.65zm6.436 4.064c.78 1.437.865 1.797.865 5.548 0 2.483-.012 4.015-.012 4.015a68.485 68.485 0 0 0-1.597.002s-.004-1.469-.004-3.837c0-3.296-.092-4.008-.662-5.09-.911-1.73-2.949-2.75-5.02-2.788-3.18-.06-5.573 2.173-5.653 5.058-.068 2.5 1.683 5.303 5.505 5.413.812.024 3.95.032 5.46-3.072.033 1.125-.01 4.295-.01 4.295l-1.508.02-.01-.873s-.74.351-1.133.46c-.863.242-1.754.424-2.652.421-5.152-.02-7.36-3.342-7.283-6.66.053-2.296 2.05-6.556 7.26-6.598 2.92-.13 5.337 1.625 6.454 3.686zm-27.944.405.044-9.204c.022.02 4.766-.021 6.936-.008 1.1.007 2.691.848 3.434 1.68.786.878.953 2.115.993 3.249.024.679-.2 1.356-.453 1.983-.175.432-.72 1.19-.72 1.19.61.555 1.344.97 1.794 1.653.544.824.966 1.809 1 2.803.021.645-.038 2.947-1.84 4.492-1.352 1.158-2.89 1.277-3.629 1.322-2.518.024-7.56-.006-7.56-.006zm10.181 6.439c.696-.797.993-1.98.977-3.049-.015-.97-.387-1.971-.97-2.735-.582-1.012-2.16-1.517-2.16-1.515 0 0 .877-.894 1.167-1.468.283-.562.395-1.226.371-1.858-.044-1.176-.624-2.338-1.541-3.03-.484-.364-1.74-.485-1.74-.485h-4.704v15.612c.002-.01 4.244 0 5.45-.001 1.206-.002 2.38-.59 3.15-1.47zm-8.277-6.881s3.623-.014 5.663-.006c.662.002 1.447.405 1.958.923.823.759 1.123 1.819 1.174 2.916.044 1.584-.612 2.868-1.82 3.524-.69.374-1.655.495-3.947.495h-3.035zm6.393 5.945c.901-.849.866-1.974.857-2.131a2.989 2.989 0 0 0-.878-1.911c-.33-.315-.709-.468-1.274-.462-1.61.019-3.232.006-3.232.006v5.005c0 .014 2.283-.007 3.262-.015.392.022 1.009-.11 1.265-.491zm-6.387-6.403c.004-1.502.005-6.566 0-6.567.026.009 3.058-.012 4.125-.002.708.007 1.46.295 1.978.79.656.627 1.096 1.596 1.15 2.494.045.754-.195 1.372-.555 1.933-.375.586-1.222 1.363-1.272 1.31-.028-.03-5.418.028-5.426.042zm5.19-1.817c.332-.38.495-.938.49-1.45-.004-.447-.162-.927-.457-1.258-.274-.308-.712-.544-1.101-.541-.848.007-2.257.013-2.258.008v1.883c0 .944.007 1.887.007 1.887.195-.015 1.507.01 2.234-.002.544-.008.817-.221 1.084-.526zm23.244-6.488 1.766-.007c.011 2.476.004 16.935.004 16.935l9.605.006-.009 1.434s-7.59-.008-11.365-.006c.008-14.186 0-18.362 0-18.362zm13.04 5.257 1.511.001-.015 13.102s-1.035-.01-1.502 0zm1.855.01 1.576-.009-.008 13.104-1.572.015.003-13.11zm-29.038 6.43c.01-2.384 2.061-4.67 5.308-4.67 3.252-.002 5.137 2.296 5.265 4.681.18 3.352-2.86 5.083-5.272 5.085-2.423.002-5.314-1.928-5.301-5.096zm8.797.012c-.022-1.864-1.599-3.253-3.522-3.242-1.888.01-3.47 1.443-3.45 3.276.012 1.266 1.164 3.416 3.48 3.452 1.67.026 3.522-.858 3.492-3.486zm9.04-11.7s.027 13.41 0 15.19l7.685-.006-.015 1.41-9.145.013.002-16.613zm9.343 3.806-1.055-3.2 1.61-.002c.239 1.082.959 3.206.959 3.206zm1.006-3.2h1.408l1.003 3.202-1.555-.002zm-25.641.582c-.26-.528-.281-1.182-.281-1.182h1.75s.067.559.123.677c.242.507.746.775 1.176.768.389-.006.82-.34 1.037-.778.07-.141.09-.65.09-.65l1.694-.032s-.012.797-.195 1.208c-.673 1.514-1.889 1.752-2.614 1.746-1.39-.04-2.158-.56-2.78-1.757z"
      transform="translate(-325.946 -190.778)"
    />
  </svg>