<?xml version="1.0" encoding="UTF-8" standalone="no"?>
<!-- Created with Inkscape (http://www.inkscape.org/) -->

<svg
   width="266.2485mm"
   height="72.237953mm"
   viewBox="0 0 266.2485 72.237953"
   version="1.1"
   id="svg1"
   xml:space="preserve"
   inkscape:version="1.3.2 (091e20e, 2023-11-25, custom)"
   sodipodi:docname="dibujologos.svg"
   xmlns:inkscape="http://www.inkscape.org/namespaces/inkscape"
   xmlns:sodipodi="http://sodipodi.sourceforge.net/DTD/sodipodi-0.dtd"
   xmlns="http://www.w3.org/2000/svg"
   xmlns:svg="http://www.w3.org/2000/svg"><sodipodi:namedview
     id="namedview1"
     pagecolor="#ffffff"
     bordercolor="#000000"
     borderopacity="0.25"
     inkscape:showpageshadow="2"
     inkscape:pageopacity="0.0"
     inkscape:pagecheckerboard="0"
     inkscape:deskcolor="#d1d1d1"
     inkscape:document-units="mm"
     showguides="false"
     inkscape:zoom="2"
     inkscape:cx="-169.25"
     inkscape:cy="-2043.75"
     inkscape:window-width="1920"
     inkscape:window-height="1009"
     inkscape:window-x="-8"
     inkscape:window-y="2108"
     inkscape:window-maximized="1"
     inkscape:current-layer="use1"><sodipodi:guide
       position="-202.53949,103.38114"
       orientation="0,-1"
       id="guide189"
       inkscape:locked="false" /><sodipodi:guide
       position="-200.55458,86.733475"
       orientation="0,-1"
       id="guide190"
       inkscape:locked="false" /><sodipodi:guide
       position="-184.43207,98.734405"
       orientation="0,-1"
       id="guide191"
       inkscape:locked="false" /><sodipodi:guide
       position="-201.67711,99.923225"
       orientation="0,-1"
       id="guide192"
       inkscape:locked="false" /><sodipodi:guide
       position="-201.11585,99.081325"
       orientation="0,-1"
       id="guide193"
       inkscape:locked="false" /><sodipodi:guide
       position="-192.11325,95.857055"
       orientation="0,-1"
       id="guide194"
       inkscape:locked="false" /><sodipodi:guide
       position="-204.81084,95.433085"
       orientation="0,-1"
       id="guide195"
       inkscape:locked="false" /><sodipodi:guide
       position="-164.40642,89.589745"
       orientation="0,-1"
       id="guide196"
       inkscape:locked="false" /><sodipodi:guide
       position="-163.51345,88.332975"
       orientation="0,-1"
       id="guide197"
       inkscape:locked="false" /><sodipodi:guide
       position="-165.63012,88.035315"
       orientation="0,-1"
       id="guide198"
       inkscape:locked="false" /><sodipodi:guide
       position="-168.4221,103.52468"
       orientation="1,0"
       id="guide199"
       inkscape:locked="false" /><sodipodi:guide
       position="-167.05225,109.10276"
       orientation="1,0"
       id="guide200"
       inkscape:locked="false" /><sodipodi:guide
       position="-159.90957,94.076705"
       orientation="1,0"
       id="guide201"
       inkscape:locked="false" /><sodipodi:guide
       position="-158.36609,99.642595"
       orientation="1,0"
       id="guide202"
       inkscape:locked="false" /><sodipodi:guide
       position="-156.96292,102.21506"
       orientation="1,0"
       id="guide203"
       inkscape:locked="false" /><sodipodi:guide
       position="-156.63552,101.9812"
       orientation="1,0"
       id="guide204"
       inkscape:locked="false" /><sodipodi:guide
       position="-155.18557,105.39556"
       orientation="1,0"
       id="guide205"
       inkscape:locked="false" /><sodipodi:guide
       position="-198.63692,109.18411"
       orientation="1,0"
       id="guide206"
       inkscape:locked="false" /><sodipodi:guide
       position="-196.90635,108.71639"
       orientation="1,0"
       id="guide207"
       inkscape:locked="false" /><sodipodi:guide
       position="-195.17578,107.96803"
       orientation="1,0"
       id="guide208"
       inkscape:locked="false" /><sodipodi:guide
       position="-191.62109,107.45353"
       orientation="1,0"
       id="guide209"
       inkscape:locked="false" /><sodipodi:guide
       position="-190.17115,108.24866"
       orientation="1,0"
       id="guide210"
       inkscape:locked="false" /><sodipodi:guide
       position="-188.3016,92.095015"
       orientation="1,0"
       id="guide211"
       inkscape:locked="false" /><sodipodi:guide
       position="-186.61647,103.47791"
       orientation="1,0"
       id="guide212"
       inkscape:locked="false" /><sodipodi:guide
       position="-188.73982,91.772555"
       orientation="1,0"
       id="guide213"
       inkscape:locked="false" /><sodipodi:guide
       position="-199.66591,100.43772"
       orientation="0,-1"
       id="guide214"
       inkscape:locked="false" /><sodipodi:guide
       position="-200.64812,97.023345"
       orientation="0,-1"
       id="guide215"
       inkscape:locked="false" /><sodipodi:guide
       position="-178.80967,95.708235"
       orientation="0,-1"
       id="guide216"
       inkscape:locked="false" /><sodipodi:guide
       position="-200.78844,94.123475"
       orientation="0,-1"
       id="guide217"
       inkscape:locked="false" /><sodipodi:guide
       position="-183.95045,106.05037"
       orientation="1,0"
       id="guide218"
       inkscape:locked="false" /><sodipodi:guide
       position="-182.36021,105.1617"
       orientation="1,0"
       id="guide219"
       inkscape:locked="false" /><sodipodi:guide
       position="-181.51831,103.75854"
       orientation="1,0"
       id="guide220"
       inkscape:locked="false" /><sodipodi:guide
       position="-179.88128,103.75854"
       orientation="1,0"
       id="guide221"
       inkscape:locked="false" /><sodipodi:guide
       position="-177.63622,101.70056"
       orientation="1,0"
       id="guide222"
       inkscape:locked="false" /><sodipodi:guide
       position="-176.04596,100.6248"
       orientation="1,0"
       id="guide223"
       inkscape:locked="false" /><sodipodi:guide
       position="-175.15729,101.37316"
       orientation="1,0"
       id="guide224"
       inkscape:locked="false" /><sodipodi:guide
       position="-173.65473,87.277195"
       orientation="1,0"
       id="guide225"
       inkscape:locked="false" /><sodipodi:guide
       position="-170.48008,96.368545"
       orientation="1,0"
       id="guide226"
       inkscape:locked="false" /><sodipodi:guide
       position="-168.83819,105.9939"
       orientation="1,0"
       id="guide227"
       inkscape:locked="false" /><sodipodi:guide
       position="-159.34829,97.958785"
       orientation="1,0"
       id="guide228"
       inkscape:locked="false" /><sodipodi:guide
       position="-157.43064,95.058925"
       orientation="1,0"
       id="guide229"
       inkscape:locked="false" /><sodipodi:guide
       position="-156.12102,90.849425"
       orientation="1,0"
       id="guide230"
       inkscape:locked="false" /><sodipodi:guide
       position="-168.65596,102.8231"
       orientation="0,-1"
       id="guide231"
       inkscape:locked="false" /><sodipodi:guide
       position="-193.07103,100.57803"
       orientation="1,0"
       id="guide232"
       inkscape:locked="false" /><sodipodi:guide
       position="-195.63181,101.8058"
       orientation="0,-1"
       id="guide233"
       inkscape:locked="false" /><sodipodi:guide
       position="-193.70076,97.667815"
       orientation="0,-1"
       id="guide234"
       inkscape:locked="false" /><sodipodi:guide
       position="-192.14633,97.072495"
       orientation="1,0"
       id="guide235"
       inkscape:locked="false" /><sodipodi:guide
       position="-190.98051,96.427565"
       orientation="1,0"
       id="guide236"
       inkscape:locked="false" /><sodipodi:guide
       position="-171.91398,96.038975"
       orientation="1,0"
       id="guide237"
       inkscape:locked="false" /><sodipodi:guide
       position="-157.84972,100.92549"
       orientation="1,0"
       id="guide238"
       inkscape:locked="false" /><sodipodi:guide
       position="-173.40918,89.358565"
       orientation="1,0"
       id="guide239"
       inkscape:locked="false" /><sodipodi:guide
       position="-185.44717,91.153445"
       orientation="1,0"
       id="guide240"
       inkscape:locked="false" /><sodipodi:guide
       position="-183.59967,89.446265"
       orientation="1,0"
       id="guide241"
       inkscape:locked="false" /><sodipodi:guide
       position="-181.91587,89.726895"
       orientation="1,0"
       id="guide242"
       inkscape:locked="false" /><sodipodi:guide
       position="-175.43793,87.411675"
       orientation="1,0"
       id="guide243"
       inkscape:locked="false" /><sodipodi:guide
       position="-173.8009,88.697905"
       orientation="1,0"
       id="guide244"
       inkscape:locked="false" /><sodipodi:guide
       position="-178.68859,85.868195"
       orientation="1,0"
       id="guide245"
       inkscape:locked="false" /><sodipodi:guide
       position="-186.52293,95.339555"
       orientation="0,-1"
       id="guide246"
       inkscape:locked="false" /><sodipodi:guide
       position="-185.29197,97.345355"
       orientation="0,-1"
       id="guide247"
       inkscape:locked="false" /><sodipodi:guide
       position="-186.99065,92.767085"
       orientation="0,-1"
       id="guide248"
       inkscape:locked="false" /><sodipodi:guide
       position="-179.60064,87.867695"
       orientation="0,-1"
       id="guide249"
       inkscape:locked="false" /><sodipodi:guide
       position="-180.8518,88.160025"
       orientation="0,-1"
       id="guide250"
       inkscape:locked="false" /><sodipodi:guide
       position="-185.82135,89.668425"
       orientation="1,0"
       id="guide252"
       inkscape:locked="false" /><sodipodi:guide
       position="-196.83619,91.971955"
       orientation="0,-1"
       id="guide253"
       inkscape:locked="false" /><sodipodi:guide
       position="-197.21476,91.011885"
       orientation="1,0"
       id="guide254"
       inkscape:locked="false" /></sodipodi:namedview><defs
     id="defs1"><clipPath
       id="clip6-4"><rect
         x="182"
         y="100"
         width="129"
         height="35"
         id="rect6-3" /></clipPath><clipPath
       id="clip7-1"><rect
         x="182"
         y="100"
         width="129"
         height="35"
         id="rect7-9" /></clipPath><clipPath
       clipPathUnits="userSpaceOnUse"
       id="clipPath89"><g
         id="g90"
         transform="matrix(3.7795276,0,0,3.7795276,358.65686,2264.4458)"><rect
           x="-92.513374"
           y="-572.94086"
           width="439.4729"
           height="9.7895832"
           id="rect90"
           style="stroke-width:0.264583" /></g></clipPath></defs><g
     inkscape:label="Capa 1"
     inkscape:groupmode="layer"
     id="layer1"
     transform="translate(-486.23896,269.62041)"><g
       id="g633641"
       transform="matrix(1.6799558,0,0,1.6799558,62.48909,1354.7379)"
       inkscape:export-filename="..\..\Bati\Bali\bali-cycles\public\assets\images\partners\bafang"
       inkscape:export-xdpi="32.399132"
       inkscape:export-ydpi="32.399132"><g
         clip-path="url(#clipPath89)"
         id="g15"
         transform="matrix(1.2285691,0,0,1.2285691,28.63913,-1089.7623)"><g
           clip-path="url(#clip6-4)"
           id="g14"><g
             clip-path="url(#clip7-1)"
             id="g13"><path
               d="M 106.875,0 H 17.5 C 7.835,0 0,7.835 0,17.5 0,27.165 7.835,35 17.5,35 h 89.375 c 9.665,0 17.5,-7.835 17.5,-17.5 0,-9.665 -7.835,-17.5 -17.5,-17.5"
               fill="#eb6608"
               id="path12"
               transform="matrix(1.03719,0,0,1,182,100)" /><path
               d="m 102.744,25.15 c -4.2309,0.1113 -7.7502,-3.2279 -7.8615,-7.4583 -0.0031,-0.1181 -0.0037,-0.2361 -0.0013,-0.3542 0.0207,-4.3388 3.5544,-7.83944 7.8938,-7.81887 0.006,6e-5 0.013,6e-5 0.019,1.2e-4 1.845,-0.07781 3.658,0.50505 5.112,1.64375 0.578,0.4521 0.696,1.2789 0.269,1.875 -0.404,0.5849 -1.206,0.7311 -1.791,0.3267 -0.001,-5e-4 -0.002,-0.0011 -0.003,-0.0017 -1.037,-0.8143 -2.319,-1.2548 -3.637,-1.25 -2.7928,0.0033 -5.054,2.2696 -5.0509,5.0621 0,0.0189 6e-4,0.0378 6e-4,0.0567 0,3.125 2.2188,5.2937 5.0943,5.2937 1.039,0.0166 2.063,-0.2631 2.949,-0.8062 V 18.75 h -2.5 c -0.675,-0.1456 -1.103,-0.8107 -0.958,-1.4856 0.104,-0.4798 0.478,-0.8546 0.958,-0.9582 h 5.269 v 6.725 c -1.607,1.3728 -3.649,2.1303 -5.762,2.1376 M 91.7562,23.75 c 0,0.7939 -0.6437,1.4375 -1.4375,1.4375 -0.7937,0 -1.4374,-0.6436 -1.4374,-1.4375 v -7.6938 c 0,-2.0625 -1.4188,-3.7999 -3.5375,-3.7999 -2.1188,0 -3.5375,1.7374 -3.5375,3.7999 V 23.75 c -0.0525,0.7922 -0.7369,1.3919 -1.5294,1.3396 C 79.5581,25.0421 78.985,24.4692 78.9375,23.75 v -7.8438 c 0.0206,-3.546 2.91,-6.40476 6.4563,-6.38745 3.5037,-0.01044 6.3525,2.82125 6.3624,6.32485 0,0.0208 0,0.0418 0,0.0626 z M 72.4375,17.075 h -7.925 V 16.3 c 0,-2.3 1.4687,-4.1687 3.9625,-4.1687 2.4938,0 3.9625,1.875 3.9625,4.1687 z M 68.525,9.51875 C 64.7969,9.51519 61.765,12.5219 61.7375,16.25 v 7.5 c 0,0.7663 0.6212,1.3875 1.3875,1.3875 0.7663,0 1.3875,-0.6212 1.3875,-1.3875 v -4.275 h 7.925 v 4.275 c 0.0513,0.7646 0.7131,1.3427 1.4775,1.2913 0.6931,-0.0466 1.2444,-0.5984 1.2913,-1.2913 v -7.5 C 75.2306,12.5532 72.2531,9.53681 68.5563,9.51262 68.5462,9.51256 68.5356,9.5125 68.525,9.5125 M 58.4813,12.5 H 51.875 v 4.3312 h 5.7625 c 0.6523,-0.0139 1.1923,0.5035 1.2063,1.1557 3e-4,0.0169 3e-4,0.0337 0,0.0506 0.0034,0.6662 -0.5339,1.2091 -1.2,1.2125 -0.0021,0 -0.0042,0 -0.0063,0 H 51.875 v 4.5 c -0.0514,0.7646 -0.7129,1.3427 -1.4774,1.2913 -0.693,-0.0466 -1.2448,-0.5984 -1.2913,-1.2913 V 9.91875 H 58.45 c 0.6895,-0.0345 1.2764,0.49645 1.3109,1.18595 0.0011,0.0213 0.0016,0.0427 0.0016,0.0641 0.0034,0.7076 -0.5674,1.284 -1.275,1.2875 -0.0021,0 -0.0042,0 -0.0062,0 m -15.8938,4.5812 h -7.925 v -0.775 c 0,-2.3 1.4688,-4.1687 3.9625,-4.1687 2.4938,0 3.9625,1.875 3.9625,4.1687 z M 38.675,9.48125 c -3.7452,-0.01038 -6.7896,3.01735 -6.8,6.76245 0,0.0021 0,0.0042 0,0.0063 v 7.5 c 0,0.7663 0.6212,1.3875 1.3875,1.3875 0.7663,0 1.3875,-0.6212 1.3875,-1.3875 v -4.275 h 7.925 v 4.275 c 0,0.7663 0.6212,1.3875 1.3875,1.3875 0.7663,0 1.3875,-0.6212 1.3875,-1.3875 v -7.5 c 0.0207,-3.7003 -2.9621,-6.71669 -6.6624,-6.73744 -0.0084,0 -0.0167,-6e-5 -0.0251,-6e-5 M 23.8562,22.325 h -4.9999 v -3.9375 h 5.0562 c 1.0299,-0.1076 1.9521,0.6402 2.0596,1.6701 0.0088,0.0847 0.0119,0.1698 0.0092,0.2549 0.0011,1.1149 -0.9017,2.0198 -2.0166,2.0209 -0.032,0 -0.064,-7e-4 -0.096,-0.0022 m -5,-10 h 4.7125 c 1.0339,-0.0586 1.9196,0.7319 1.9783,1.7658 0.0021,0.0364 0.0031,0.0728 0.003,0.1092 0.0033,1.0356 -0.8334,1.8777 -1.869,1.881 -0.0521,2e-4 -0.1041,-0.0018 -0.156,-0.006 h -4.6688 z m 7.8313,4.625 c 0.9666,-0.6226 1.5703,-1.6762 1.6188,-2.8249 0,-2.5 -1.9188,-4.21255 -4.5938,-4.21255 H 16.1625 V 24.7375 h 7.8063 c 2.5687,0 4.7687,-1.875 4.7687,-4.4437 0.0197,-1.4119 -0.7726,-2.7099 -2.0375,-3.3376"
               fill="#ffffff"
               id="path13"
               transform="matrix(1.03719,0,0,1,182,100)" /></g></g></g></g></g></svg>
