<?xml version="1.0" encoding="UTF-8" standalone="no"?>
<!-- Created with Inkscape (http://www.inkscape.org/) -->

<svg
   width="267.8396mm"
   height="72.773567mm"
   viewBox="0 0 267.8396 72.773567"
   version="1.1"
   id="svg1"
   xml:space="preserve"
   inkscape:version="1.3.2 (091e20e, 2023-11-25, custom)"
   sodipodi:docname="dibujologos.svg"
   xmlns:inkscape="http://www.inkscape.org/namespaces/inkscape"
   xmlns:sodipodi="http://sodipodi.sourceforge.net/DTD/sodipodi-0.dtd"
   xmlns="http://www.w3.org/2000/svg"
   xmlns:svg="http://www.w3.org/2000/svg"><sodipodi:namedview
     id="namedview1"
     pagecolor="#ffffff"
     bordercolor="#000000"
     borderopacity="0.25"
     inkscape:showpageshadow="2"
     inkscape:pageopacity="0.0"
     inkscape:pagecheckerboard="0"
     inkscape:deskcolor="#d1d1d1"
     inkscape:document-units="mm"
     showguides="false"
     inkscape:zoom="2"
     inkscape:cx="-169.25"
     inkscape:cy="-2043.75"
     inkscape:window-width="1920"
     inkscape:window-height="1009"
     inkscape:window-x="-8"
     inkscape:window-y="2108"
     inkscape:window-maximized="1"
     inkscape:current-layer="use1"><sodipodi:guide
       position="-236.10376,-32.529008"
       orientation="0,-1"
       id="guide189"
       inkscape:locked="false" /><sodipodi:guide
       position="-234.11885,-49.176678"
       orientation="0,-1"
       id="guide190"
       inkscape:locked="false" /><sodipodi:guide
       position="-217.99634,-37.175748"
       orientation="0,-1"
       id="guide191"
       inkscape:locked="false" /><sodipodi:guide
       position="-235.24138,-35.986928"
       orientation="0,-1"
       id="guide192"
       inkscape:locked="false" /><sodipodi:guide
       position="-234.68012,-36.828828"
       orientation="0,-1"
       id="guide193"
       inkscape:locked="false" /><sodipodi:guide
       position="-225.67752,-40.053098"
       orientation="0,-1"
       id="guide194"
       inkscape:locked="false" /><sodipodi:guide
       position="-238.37511,-40.477068"
       orientation="0,-1"
       id="guide195"
       inkscape:locked="false" /><sodipodi:guide
       position="-197.97069,-46.320408"
       orientation="0,-1"
       id="guide196"
       inkscape:locked="false" /><sodipodi:guide
       position="-197.07772,-47.577178"
       orientation="0,-1"
       id="guide197"
       inkscape:locked="false" /><sodipodi:guide
       position="-199.19439,-47.874838"
       orientation="0,-1"
       id="guide198"
       inkscape:locked="false" /><sodipodi:guide
       position="-201.98637,-32.385468"
       orientation="1,0"
       id="guide199"
       inkscape:locked="false" /><sodipodi:guide
       position="-200.61652,-26.807388"
       orientation="1,0"
       id="guide200"
       inkscape:locked="false" /><sodipodi:guide
       position="-193.47384,-41.833448"
       orientation="1,0"
       id="guide201"
       inkscape:locked="false" /><sodipodi:guide
       position="-191.93036,-36.267558"
       orientation="1,0"
       id="guide202"
       inkscape:locked="false" /><sodipodi:guide
       position="-190.52719,-33.695088"
       orientation="1,0"
       id="guide203"
       inkscape:locked="false" /><sodipodi:guide
       position="-190.19979,-33.928948"
       orientation="1,0"
       id="guide204"
       inkscape:locked="false" /><sodipodi:guide
       position="-188.74984,-30.514588"
       orientation="1,0"
       id="guide205"
       inkscape:locked="false" /><sodipodi:guide
       position="-232.20119,-26.726038"
       orientation="1,0"
       id="guide206"
       inkscape:locked="false" /><sodipodi:guide
       position="-230.47062,-27.193758"
       orientation="1,0"
       id="guide207"
       inkscape:locked="false" /><sodipodi:guide
       position="-228.74005,-27.942118"
       orientation="1,0"
       id="guide208"
       inkscape:locked="false" /><sodipodi:guide
       position="-225.18536,-28.456618"
       orientation="1,0"
       id="guide209"
       inkscape:locked="false" /><sodipodi:guide
       position="-223.73542,-27.661488"
       orientation="1,0"
       id="guide210"
       inkscape:locked="false" /><sodipodi:guide
       position="-221.86587,-43.815138"
       orientation="1,0"
       id="guide211"
       inkscape:locked="false" /><sodipodi:guide
       position="-220.18074,-32.432238"
       orientation="1,0"
       id="guide212"
       inkscape:locked="false" /><sodipodi:guide
       position="-222.30409,-44.137598"
       orientation="1,0"
       id="guide213"
       inkscape:locked="false" /><sodipodi:guide
       position="-233.23018,-35.472428"
       orientation="0,-1"
       id="guide214"
       inkscape:locked="false" /><sodipodi:guide
       position="-234.21239,-38.886808"
       orientation="0,-1"
       id="guide215"
       inkscape:locked="false" /><sodipodi:guide
       position="-212.37394,-40.201918"
       orientation="0,-1"
       id="guide216"
       inkscape:locked="false" /><sodipodi:guide
       position="-234.35271,-41.786678"
       orientation="0,-1"
       id="guide217"
       inkscape:locked="false" /><sodipodi:guide
       position="-217.51472,-29.859778"
       orientation="1,0"
       id="guide218"
       inkscape:locked="false" /><sodipodi:guide
       position="-215.92448,-30.748448"
       orientation="1,0"
       id="guide219"
       inkscape:locked="false" /><sodipodi:guide
       position="-215.08258,-32.151608"
       orientation="1,0"
       id="guide220"
       inkscape:locked="false" /><sodipodi:guide
       position="-213.44555,-32.151608"
       orientation="1,0"
       id="guide221"
       inkscape:locked="false" /><sodipodi:guide
       position="-211.20049,-34.209588"
       orientation="1,0"
       id="guide222"
       inkscape:locked="false" /><sodipodi:guide
       position="-209.61023,-35.285348"
       orientation="1,0"
       id="guide223"
       inkscape:locked="false" /><sodipodi:guide
       position="-208.72156,-34.536988"
       orientation="1,0"
       id="guide224"
       inkscape:locked="false" /><sodipodi:guide
       position="-207.219,-48.632958"
       orientation="1,0"
       id="guide225"
       inkscape:locked="false" /><sodipodi:guide
       position="-204.04435,-39.541608"
       orientation="1,0"
       id="guide226"
       inkscape:locked="false" /><sodipodi:guide
       position="-202.40246,-29.916248"
       orientation="1,0"
       id="guide227"
       inkscape:locked="false" /><sodipodi:guide
       position="-192.91256,-37.951368"
       orientation="1,0"
       id="guide228"
       inkscape:locked="false" /><sodipodi:guide
       position="-190.99491,-40.851228"
       orientation="1,0"
       id="guide229"
       inkscape:locked="false" /><sodipodi:guide
       position="-189.68529,-45.060728"
       orientation="1,0"
       id="guide230"
       inkscape:locked="false" /><sodipodi:guide
       position="-202.22023,-33.087048"
       orientation="0,-1"
       id="guide231"
       inkscape:locked="false" /><sodipodi:guide
       position="-226.6353,-35.332118"
       orientation="1,0"
       id="guide232"
       inkscape:locked="false" /><sodipodi:guide
       position="-229.19608,-34.104348"
       orientation="0,-1"
       id="guide233"
       inkscape:locked="false" /><sodipodi:guide
       position="-227.26503,-38.242338"
       orientation="0,-1"
       id="guide234"
       inkscape:locked="false" /><sodipodi:guide
       position="-225.7106,-38.837658"
       orientation="1,0"
       id="guide235"
       inkscape:locked="false" /><sodipodi:guide
       position="-224.54478,-39.482588"
       orientation="1,0"
       id="guide236"
       inkscape:locked="false" /><sodipodi:guide
       position="-205.47825,-39.871178"
       orientation="1,0"
       id="guide237"
       inkscape:locked="false" /><sodipodi:guide
       position="-191.41399,-34.984658"
       orientation="1,0"
       id="guide238"
       inkscape:locked="false" /><sodipodi:guide
       position="-206.97345,-46.551588"
       orientation="1,0"
       id="guide239"
       inkscape:locked="false" /><sodipodi:guide
       position="-219.01144,-44.756708"
       orientation="1,0"
       id="guide240"
       inkscape:locked="false" /><sodipodi:guide
       position="-217.16394,-46.463888"
       orientation="1,0"
       id="guide241"
       inkscape:locked="false" /><sodipodi:guide
       position="-215.48014,-46.183258"
       orientation="1,0"
       id="guide242"
       inkscape:locked="false" /><sodipodi:guide
       position="-209.0022,-48.498478"
       orientation="1,0"
       id="guide243"
       inkscape:locked="false" /><sodipodi:guide
       position="-207.36517,-47.212248"
       orientation="1,0"
       id="guide244"
       inkscape:locked="false" /><sodipodi:guide
       position="-212.25286,-50.041958"
       orientation="1,0"
       id="guide245"
       inkscape:locked="false" /><sodipodi:guide
       position="-220.0872,-40.570598"
       orientation="0,-1"
       id="guide246"
       inkscape:locked="false" /><sodipodi:guide
       position="-218.85624,-38.564798"
       orientation="0,-1"
       id="guide247"
       inkscape:locked="false" /><sodipodi:guide
       position="-220.55492,-43.143068"
       orientation="0,-1"
       id="guide248"
       inkscape:locked="false" /><sodipodi:guide
       position="-213.16491,-48.042458"
       orientation="0,-1"
       id="guide249"
       inkscape:locked="false" /><sodipodi:guide
       position="-214.41607,-47.750128"
       orientation="0,-1"
       id="guide250"
       inkscape:locked="false" /><sodipodi:guide
       position="-219.38562,-46.241728"
       orientation="1,0"
       id="guide252"
       inkscape:locked="false" /><sodipodi:guide
       position="-230.40046,-43.938198"
       orientation="0,-1"
       id="guide253"
       inkscape:locked="false" /><sodipodi:guide
       position="-230.77903,-44.898268"
       orientation="1,0"
       id="guide254"
       inkscape:locked="false" /></sodipodi:namedview><defs
     id="defs1" /><g
     inkscape:label="Capa 1"
     inkscape:groupmode="layer"
     id="layer1"
     transform="translate(-519.80323,405.53057)"><g
       id="g633643"
       transform="matrix(1.96754,0,0,1.96754,380.52027,1405.3905)"><g
         id="g538416"
         transform="matrix(1.0510806,0,0,1.0510806,152.90977,-94.255414)"><path
           style="fill:#fdfdfd"
           d="m -77.996231,-769.32539 0.10684,-16.66875 H 51.385021 l -0.264583,16.66875 -0.396875,18.52083 H -78.128523 Z m 26.099452,5.95313 c 1.463186,-2.38125 1.535455,-2.24896 -1.228618,-2.24896 -1.309688,0 -2.38125,-0.0522 -2.38125,-0.116 0,-0.0638 1.42875,-2.45238 3.175,-5.30796 1.74625,-2.85558 3.175,-5.3076 3.175,-5.44892 v -0.25695 l -2.934121,0.0748 -2.934121,0.0748 -4.086692,6.74687 c -2.247681,3.71078 -4.320607,7.06948 -4.606504,7.46377 -0.285897,0.39429 -0.519813,0.78361 -0.519813,0.86516 0,0.0815 2.520694,0.11613 5.601542,0.0769 l 5.601541,-0.0714 z m 19.863701,-3.24115 3.18123,-5.22552 1.938471,-0.13229 1.938471,-0.13229 1.26975,-2.11667 c 0.698362,-1.16417 1.270127,-2.20597 1.270588,-2.31511 4.61e-4,-0.10914 -2.959424,-0.19843 -6.577521,-0.19843 h -6.578359 l -1.359141,2.13534 c -0.747528,1.17443 -1.359141,2.25615 -1.359141,2.40382 v 0.26849 l 1.723346,-0.0887 1.723347,-0.0887 -0.115559,0.29949 c -0.146594,0.37994 -5.070753,8.45422 -5.740726,9.41323 -0.275454,0.39429 -0.500825,0.78124 -0.500825,0.85989 0,0.0787 1.351088,0.14301 3.002419,0.14301 h 3.002419 z m 16.457667,1.37799 c 1.662023,-2.10264 3.056938,-3.78791 3.099811,-3.74503 0.04287,0.0429 -0.4517,1.73897 -1.09905,3.76911 -0.647351,2.03014 -1.179063,3.72092 -1.181582,3.7573 -0.0025,0.0364 1.518018,0.0661 3.378973,0.0661 h 3.3835548 l 1.0444612,-1.25677 c 0.5744537,-0.69122 3.516698,-4.08073 6.53832059,-7.53223 6.46288151,-7.38235 6.11281511,-6.55776 2.78188011,-6.55278 -3.24563301,0.005 -2.47320387,-0.51055 -6.9332455,4.62616 -2.0216193,2.32833 -3.8265502,4.40059 -4.0109577,4.60503 -0.1844074,0.20444 0.2519893,-1.52197 0.9697703,-3.83646 0.7177811,-2.31449 1.3784563,-4.47605 1.4681672,-4.80347 l 0.1631106,-0.59531 h -2.2726306 -2.272631 l -3.885064,4.82864 c -2.136786,2.65576 -3.817667,4.64117 -3.735291,4.41204 0.37148,-1.03331 2.847834,-8.92249 2.847834,-9.07265 0,-0.0924 -1.305902,-0.16803 -2.902005,-0.16803 h -2.902004 l -1.313888,4.16718 c -0.722638,2.29196 -1.740767,5.53641 -2.262508,7.2099 -0.521741,1.67349 -1.013862,3.25107 -1.093604,3.50573 l -0.144984,0.46302 3.655851,-0.0123 3.65585,-0.0123 z m 29.138588,1.25285 2.567615,-2.59467 1.072127,-2.23397 c 0.589669,-1.22869 1.145973,-2.76975 1.23623,-3.4246 l 0.164104,-1.19062 -0.608595,-1.19063 -0.608596,-1.19062 -0.926042,-0.47726 -0.926041,-0.47726 -2.910417,0.0942 -2.9104167,0.0942 -1.4552084,0.63031 c -5.8689287,2.54206 -11.1125001,8.84541 -11.1125001,13.35845 v 1.19723 h 6.9250629 6.9250633 z m -9.6267679,0.83079 c -1.4597753,-1.45977 3.5778605,-8.85267 6.4643549,-9.48665 l 0.789264,-0.17335 0.386038,0.32038 c 1.189104,0.98687 -1.7137486,6.44469 -4.5976583,8.64432 l -1.1428579,0.87169 H 4.9741739 c -0.4737567,0 -0.9407509,-0.0794 -1.0377648,-0.17639 z m 27.0324649,0.63941 c 1.843814,-1.41925 4.273562,-4.4569 5.32177,-6.65322 l 0.806877,-1.69066 v -1.8601 -1.86011 l -0.670117,-0.79639 c -0.368565,-0.43801 -1.094574,-0.93647 -1.613355,-1.10768 l -0.943238,-0.3113 -2.686124,0.10215 -2.686125,0.10215 -1.823895,0.85681 c -5.689621,2.6728 -10.743813,8.83611 -10.743813,13.1015 0,1.28276 -0.232435,1.24133 6.96497,1.24133 h 6.612192 z m -8.328521,-0.86189 c -0.460315,-1.19956 1.67107,-5.36106 3.874061,-7.56405 l 1.256384,-1.25639 1.083091,-0.3245 1.08309,-0.3245 0.405271,0.33634 c 1.892991,1.57105 -3.730825,9.53197 -6.733644,9.53197 h -0.815193 z m -63.131896,-4.89448 c 0.472943,-0.7233 0.859896,-1.376 0.859896,-1.45045 0,-0.0744 -1.935633,-0.13537 -4.301406,-0.13537 h -4.301406 l -0.7893,1.25677 c -0.434115,0.69123 -0.830123,1.34607 -0.880018,1.45521 -0.04989,0.10914 1.85397,0.1963 4.23081,0.19369 l 4.321528,-0.005 z"
           id="path538417"
           sodipodi:nodetypes="cccccccssssscccsssscsccccssscsscccssssccssssscsscsssscccsssscssscccsccsscccccccsscccccscsscscsscccsscccssscssscccsscsssscssccs" /><path
           style="fill:#000000"
           d="m -63.664634,-761.88222 c 0.04851,-0.12636 2.041914,-3.46011 4.429793,-7.40833 l 4.341599,-7.17859 h 2.736006 c 1.504803,0 2.736005,0.0493 2.736005,0.10956 0,0.16479 -5.834439,9.77346 -6.110713,10.06367 -0.131608,0.13824 -0.239287,0.40167 -0.239287,0.58538 v 0.33403 l 2.357274,0.0761 2.357274,0.0761 -1.047121,1.78594 -1.04712,1.78594 h -5.300952 c -2.915524,0 -5.261265,-0.10339 -5.212758,-0.22975 z m 23.20801,-0.49786 c 1.011952,-1.43309 5.85206,-9.60774 5.85206,-9.88376 v -0.2817 l -1.720408,0.0887 c -0.946225,0.0488 -1.690365,0.0292 -1.653646,-0.0436 0.03672,-0.0728 0.586347,-0.99551 1.221395,-2.05052 l 1.154633,-1.91819 h 6.477279 6.47728 l -0.736693,1.25677 c -0.405182,0.69122 -0.922511,1.58344 -1.149621,1.9827 l -0.412927,0.72593 -1.767039,0.002 -1.767038,0.002 -0.349628,0.35522 c -0.192296,0.19537 -1.718847,2.63582 -3.392337,5.42322 l -3.042708,5.06802 -2.852192,7.3e-4 -2.852192,7.3e-4 z m 15.825163,-2.24896 c 0.510393,-1.63711 1.54275,-4.94109 2.294126,-7.34218 l 1.366138,-4.36563 2.740312,-0.0757 2.740311,-0.0758 -0.14677,0.38248 c -1.557323,4.05832 -3.034287,9.98817 -2.210691,8.87568 0.170003,-0.22963 1.902079,-2.40233 3.849057,-4.82823 l 3.539961,-4.41071 h 2.1107428 2.1107425 l -0.1547481,0.40327 c -0.085112,0.22179 -0.6957953,2.18345 -1.3570752,4.35923 -0.6612798,2.17578 -1.2719637,4.13744 -1.3570751,4.35923 -0.4067564,1.05999 0.6556649,0.0265 4.4810816,-4.35923 l 4.15408824,-4.7625 H 2.041255 c 3.1054544,0 3.4773863,-0.80831 -3.0812034,6.69631 -3.0765453,3.52031 -5.9304078,6.78752 -6.3419167,7.26046 l -0.748198,0.8599 H -11.287232 -14.4444 l 1.16148,-3.63802 c 0.638814,-2.00092 1.234959,-3.86047 1.324767,-4.13235 0.332491,-1.00657 -0.432685,-0.20507 -3.56622,3.73547 l -3.208563,4.0349 h -3.413256 -3.413257 z m 22.0414811,1.91162 c 0,-4.2071 4.6538342,-9.98094 10.1381086,-12.57797 l 1.9004333,-0.89994 1.984375,-0.30404 1.984375,-0.30404 1.519342,0.31777 1.519343,0.31776 0.759509,0.75951 c 1.416716,1.41672 1.280533,3.70915 -0.413784,6.96544 l -0.986354,1.89567 -2.432054,2.44739 -2.432054,2.4474 H 4.1806399 -2.5899799 Z m 8.9428268,-0.36904 c 2.9502336,-1.55119 6.6951661,-8.06783 5.4359581,-9.45924 -1.379249,-1.52406 -4.961097,1.26169 -7.2302161,5.62322 l -1.063152,2.04352 v 0.90769 c 0,1.36053 1.2288894,1.74106 2.85741,0.88481 z m 9.9243231,-0.0752 0.155766,-1.50922 0.923958,-1.86422 c 2.198289,-4.43536 6.259789,-7.96063 11.009377,-9.55584 l 1.455208,-0.48875 2.116667,0.005 2.116666,0.005 0.986394,0.43102 c 0.542517,0.23707 1.23465,0.82514 1.538074,1.30684 l 0.551679,0.87582 -0.127324,1.55889 -0.127325,1.55889 -0.939809,1.88069 c -1.041111,2.08342 -2.861227,4.32842 -4.965363,6.12448 l -1.382615,1.18018 h -6.733559 -6.733559 z m 9.096459,-0.0656 c 2.537692,-1.54734 5.984179,-7.06594 5.533717,-8.86072 l -0.167884,-0.6689 -0.650518,-0.16327 -0.650517,-0.16327 -1.197761,0.57982 c -2.072618,1.00334 -5.490702,5.68163 -5.873177,8.03854 l -0.155146,0.95605 0.331236,0.39912 c 0.459473,0.55363 1.822273,0.49711 2.83005,-0.11737 z m -74.237996,-5.17206 0.803543,-1.19062 h 4.072117 4.072116 l -0.717424,1.18226 -0.717424,1.18226 -4.158236,0.008 -4.158235,0.008 z"
           id="path538416" /></g></g></g></svg>
