<?xml version="1.0" encoding="UTF-8" standalone="no"?>
<!-- Created with Inkscape (http://www.inkscape.org/) -->

<svg
   width="266.55035mm"
   height="63.740295mm"
   viewBox="0 0 266.55035 63.740295"
   version="1.1"
   id="svg1"
   xml:space="preserve"
   inkscape:version="1.3.2 (091e20e, 2023-11-25, custom)"
   sodipodi:docname="dibujologos.svg"
   xmlns:inkscape="http://www.inkscape.org/namespaces/inkscape"
   xmlns:sodipodi="http://sodipodi.sourceforge.net/DTD/sodipodi-0.dtd"
   xmlns="http://www.w3.org/2000/svg"
   xmlns:svg="http://www.w3.org/2000/svg"><sodipodi:namedview
     id="namedview1"
     pagecolor="#ffffff"
     bordercolor="#000000"
     borderopacity="0.25"
     inkscape:showpageshadow="2"
     inkscape:pageopacity="0.0"
     inkscape:pagecheckerboard="0"
     inkscape:deskcolor="#d1d1d1"
     inkscape:document-units="mm"
     showguides="false"
     inkscape:zoom="2"
     inkscape:cx="-169.25"
     inkscape:cy="-2043.75"
     inkscape:window-width="1920"
     inkscape:window-height="1009"
     inkscape:window-x="-8"
     inkscape:window-y="2108"
     inkscape:window-maximized="1"
     inkscape:current-layer="use1"><sodipodi:guide
       position="83.276501,-26.619829"
       orientation="0,-1"
       id="guide189"
       inkscape:locked="false" /><sodipodi:guide
       position="85.261411,-43.267499"
       orientation="0,-1"
       id="guide190"
       inkscape:locked="false" /><sodipodi:guide
       position="101.38392,-31.266569"
       orientation="0,-1"
       id="guide191"
       inkscape:locked="false" /><sodipodi:guide
       position="84.138881,-30.077749"
       orientation="0,-1"
       id="guide192"
       inkscape:locked="false" /><sodipodi:guide
       position="84.700141,-30.919649"
       orientation="0,-1"
       id="guide193"
       inkscape:locked="false" /><sodipodi:guide
       position="93.702741,-34.143919"
       orientation="0,-1"
       id="guide194"
       inkscape:locked="false" /><sodipodi:guide
       position="81.005151,-34.567889"
       orientation="0,-1"
       id="guide195"
       inkscape:locked="false" /><sodipodi:guide
       position="121.40957,-40.411229"
       orientation="0,-1"
       id="guide196"
       inkscape:locked="false" /><sodipodi:guide
       position="122.30254,-41.667999"
       orientation="0,-1"
       id="guide197"
       inkscape:locked="false" /><sodipodi:guide
       position="120.18587,-41.965659"
       orientation="0,-1"
       id="guide198"
       inkscape:locked="false" /><sodipodi:guide
       position="117.39389,-26.476289"
       orientation="1,0"
       id="guide199"
       inkscape:locked="false" /><sodipodi:guide
       position="118.76374,-20.898209"
       orientation="1,0"
       id="guide200"
       inkscape:locked="false" /><sodipodi:guide
       position="125.90642,-35.924269"
       orientation="1,0"
       id="guide201"
       inkscape:locked="false" /><sodipodi:guide
       position="127.4499,-30.358379"
       orientation="1,0"
       id="guide202"
       inkscape:locked="false" /><sodipodi:guide
       position="128.85307,-27.785909"
       orientation="1,0"
       id="guide203"
       inkscape:locked="false" /><sodipodi:guide
       position="129.18047,-28.019769"
       orientation="1,0"
       id="guide204"
       inkscape:locked="false" /><sodipodi:guide
       position="130.63042,-24.605409"
       orientation="1,0"
       id="guide205"
       inkscape:locked="false" /><sodipodi:guide
       position="87.179071,-20.816859"
       orientation="1,0"
       id="guide206"
       inkscape:locked="false" /><sodipodi:guide
       position="88.909641,-21.284579"
       orientation="1,0"
       id="guide207"
       inkscape:locked="false" /><sodipodi:guide
       position="90.640211,-22.032939"
       orientation="1,0"
       id="guide208"
       inkscape:locked="false" /><sodipodi:guide
       position="94.194901,-22.547439"
       orientation="1,0"
       id="guide209"
       inkscape:locked="false" /><sodipodi:guide
       position="95.644841,-21.752309"
       orientation="1,0"
       id="guide210"
       inkscape:locked="false" /><sodipodi:guide
       position="97.514391,-37.905959"
       orientation="1,0"
       id="guide211"
       inkscape:locked="false" /><sodipodi:guide
       position="99.199521,-26.523059"
       orientation="1,0"
       id="guide212"
       inkscape:locked="false" /><sodipodi:guide
       position="97.076171,-38.228419"
       orientation="1,0"
       id="guide213"
       inkscape:locked="false" /><sodipodi:guide
       position="86.150081,-29.563249"
       orientation="0,-1"
       id="guide214"
       inkscape:locked="false" /><sodipodi:guide
       position="85.167871,-32.977629"
       orientation="0,-1"
       id="guide215"
       inkscape:locked="false" /><sodipodi:guide
       position="107.00632,-34.292739"
       orientation="0,-1"
       id="guide216"
       inkscape:locked="false" /><sodipodi:guide
       position="85.027551,-35.877499"
       orientation="0,-1"
       id="guide217"
       inkscape:locked="false" /><sodipodi:guide
       position="101.86554,-23.950599"
       orientation="1,0"
       id="guide218"
       inkscape:locked="false" /><sodipodi:guide
       position="103.45578,-24.839269"
       orientation="1,0"
       id="guide219"
       inkscape:locked="false" /><sodipodi:guide
       position="104.29768,-26.242429"
       orientation="1,0"
       id="guide220"
       inkscape:locked="false" /><sodipodi:guide
       position="105.93471,-26.242429"
       orientation="1,0"
       id="guide221"
       inkscape:locked="false" /><sodipodi:guide
       position="108.17977,-28.300409"
       orientation="1,0"
       id="guide222"
       inkscape:locked="false" /><sodipodi:guide
       position="109.77003,-29.376169"
       orientation="1,0"
       id="guide223"
       inkscape:locked="false" /><sodipodi:guide
       position="110.6587,-28.627809"
       orientation="1,0"
       id="guide224"
       inkscape:locked="false" /><sodipodi:guide
       position="112.16126,-42.723779"
       orientation="1,0"
       id="guide225"
       inkscape:locked="false" /><sodipodi:guide
       position="115.33591,-33.632429"
       orientation="1,0"
       id="guide226"
       inkscape:locked="false" /><sodipodi:guide
       position="116.9778,-24.007069"
       orientation="1,0"
       id="guide227"
       inkscape:locked="false" /><sodipodi:guide
       position="126.4677,-32.042189"
       orientation="1,0"
       id="guide228"
       inkscape:locked="false" /><sodipodi:guide
       position="128.38535,-34.942049"
       orientation="1,0"
       id="guide229"
       inkscape:locked="false" /><sodipodi:guide
       position="129.69497,-39.151549"
       orientation="1,0"
       id="guide230"
       inkscape:locked="false" /><sodipodi:guide
       position="117.16003,-27.177869"
       orientation="0,-1"
       id="guide231"
       inkscape:locked="false" /><sodipodi:guide
       position="92.744961,-29.422939"
       orientation="1,0"
       id="guide232"
       inkscape:locked="false" /><sodipodi:guide
       position="90.184181,-28.195169"
       orientation="0,-1"
       id="guide233"
       inkscape:locked="false" /><sodipodi:guide
       position="92.115231,-32.333159"
       orientation="0,-1"
       id="guide234"
       inkscape:locked="false" /><sodipodi:guide
       position="93.669661,-32.928479"
       orientation="1,0"
       id="guide235"
       inkscape:locked="false" /><sodipodi:guide
       position="94.835481,-33.573409"
       orientation="1,0"
       id="guide236"
       inkscape:locked="false" /><sodipodi:guide
       position="113.90201,-33.961999"
       orientation="1,0"
       id="guide237"
       inkscape:locked="false" /><sodipodi:guide
       position="127.96627,-29.075479"
       orientation="1,0"
       id="guide238"
       inkscape:locked="false" /><sodipodi:guide
       position="112.40681,-40.642409"
       orientation="1,0"
       id="guide239"
       inkscape:locked="false" /><sodipodi:guide
       position="100.36882,-38.847529"
       orientation="1,0"
       id="guide240"
       inkscape:locked="false" /><sodipodi:guide
       position="102.21632,-40.554709"
       orientation="1,0"
       id="guide241"
       inkscape:locked="false" /><sodipodi:guide
       position="103.90012,-40.274079"
       orientation="1,0"
       id="guide242"
       inkscape:locked="false" /><sodipodi:guide
       position="110.37806,-42.589299"
       orientation="1,0"
       id="guide243"
       inkscape:locked="false" /><sodipodi:guide
       position="112.01509,-41.303069"
       orientation="1,0"
       id="guide244"
       inkscape:locked="false" /><sodipodi:guide
       position="107.1274,-44.132779"
       orientation="1,0"
       id="guide245"
       inkscape:locked="false" /><sodipodi:guide
       position="99.293061,-34.661419"
       orientation="0,-1"
       id="guide246"
       inkscape:locked="false" /><sodipodi:guide
       position="100.52402,-32.655619"
       orientation="0,-1"
       id="guide247"
       inkscape:locked="false" /><sodipodi:guide
       position="98.825341,-37.233889"
       orientation="0,-1"
       id="guide248"
       inkscape:locked="false" /><sodipodi:guide
       position="106.21535,-42.133279"
       orientation="0,-1"
       id="guide249"
       inkscape:locked="false" /><sodipodi:guide
       position="104.96419,-41.840949"
       orientation="0,-1"
       id="guide250"
       inkscape:locked="false" /><sodipodi:guide
       position="99.994641,-40.332549"
       orientation="1,0"
       id="guide252"
       inkscape:locked="false" /><sodipodi:guide
       position="88.979801,-38.029019"
       orientation="0,-1"
       id="guide253"
       inkscape:locked="false" /><sodipodi:guide
       position="88.601231,-38.989089"
       orientation="1,0"
       id="guide254"
       inkscape:locked="false" /></sodipodi:namedview><defs
     id="defs1" /><g
     inkscape:label="Capa 1"
     inkscape:groupmode="layer"
     id="layer1"
     transform="translate(-200.42298,399.62139)"><g
       id="g633647"
       transform="matrix(0.9678854,0,0,0.9678854,14.996661,-12.833684)"
       inkscape:export-filename="..\..\Bati\Bali\bali-cycles\public\assets\images\partners\seekrun"
       inkscape:export-xdpi="32.399132"
       inkscape:export-ydpi="32.399132"><rect
         style="fill:#ffffff;fill-opacity:1;stroke-width:0.767015"
         id="rect633646"
         width="275.39453"
         height="65.855217"
         x="191.57881"
         y="-399.62137" /><path
         style="fill:#0033a0;fill-opacity:1"
         d="m 218.7587,-355.24307 c 0.14227,-0.4268 1.06761,-1.3812 2.05631,-2.1208 l 1.79765,-1.3449 9.25465,-0.3262 9.25464,-0.3263 0.20254,-2.4471 0.20253,-2.4471 h -10.76956 -10.76955 l -1.01583,-1.4503 -1.01584,-1.4503 v -3.669 -3.669 l 1.37187,-1.2431 1.37187,-1.2431 12.33179,-0.2027 12.33179,-0.2027 v 0.5694 c 0,0.3132 -0.95436,1.2853 -2.1208,2.1604 l -2.12081,1.5909 -9.13577,0.3263 -9.13577,0.3263 v 1.9577 1.9576 l 11.58285,0.1782 11.58286,0.1782 v 5.2351 5.235 l -1.60173,1.6017 -1.60172,1.6018 h -12.15632 -12.15631 z m 34.26352,0.3244 -1.15084,-0.3001 -0.96997,-1.8757 -0.96996,-1.8757 v -6.4606 -6.4606 l 0.73264,-2.1016 0.73263,-2.1017 1.59379,-0.6059 1.59379,-0.606 h 11.80465 11.80465 l -1.23581,1.3656 c -0.67969,0.751 -1.82639,1.7054 -2.54822,2.1208 l -1.31241,0.7552 -8.74072,0.3263 -8.74073,0.3263 -0.66204,1.0533 -0.66204,1.0532 0.40965,1.0676 0.40965,1.0675 h 9.48253 9.48254 v 1.9402 1.9402 l -9.62519,0.1806 -9.62519,0.1806 -0.19614,1.6872 -0.19613,1.6873 0.85103,0.7063 0.85102,0.7063 8.95961,0.2167 8.95961,0.2166 2.11894,2.1209 2.11895,2.1208 -12.05973,-0.076 c -6.63284,-0.042 -12.5776,-0.2108 -13.21056,-0.3759 z m 31.64831,-0.2248 -1.47774,-0.5937 -0.64307,-1.6914 -0.64306,-1.6914 v -7.3896 -7.3896 l 1.24617,-1.5406 1.24617,-1.5405 12.52528,-0.2034 12.52528,-0.2034 -0.28123,0.856 c -0.15469,0.4707 -1.25639,1.5166 -2.44824,2.3242 l -2.167,1.4682 -8.22358,0.01 -8.22358,0.01 -0.87278,0.5532 -0.87279,0.5532 0.22023,1.5576 0.22023,1.5576 9.62519,0.1806 9.62519,0.1806 v 1.9402 1.9402 h -9.48253 -9.48253 l -0.37617,0.9803 -0.37618,0.9803 0.40909,1.6299 0.40909,1.63 h 8.70056 8.70056 l 2.167,1.4682 c 1.19185,0.8076 2.28752,1.8353 2.43482,2.284 l 0.26783,0.8157 -11.63724,-0.041 -11.63723,-0.041 z m 30.23678,-0.3491 -1.02544,-1.0254 v -10.1692 -10.1691 l 1.37192,1.2416 c 0.75455,0.6828 1.78232,2.0352 2.28394,3.0052 l 0.91202,1.7637 v 4.6232 4.6233 l 1.14197,-0.6417 c 0.62809,-0.353 5.22126,-3.9123 10.20705,-7.9095 l 9.06507,-7.2678 1.60752,1.6075 1.60752,1.6075 -10.99887,8.7511 c -15.30921,12.1805 -14.46917,11.6631 -16.1727,9.9596 z m 17.43366,-1.1059 c -3.10725,-2.3853 -3.32804,-3.0595 -1.53379,-4.6833 l 1.26399,-1.1439 0.85682,0.5194 c 1.47711,0.8953 9.01375,6.8924 9.01375,7.1724 0,0.1467 -1.54166,0.262 -3.42591,0.2562 l -3.42592,-0.011 z m 14.16867,-7.8953 v -10.1093 l 1.02446,-1.0245 c 0.56346,-0.5635 1.69602,-1.193 2.51681,-1.399 l 1.49233,-0.3746 10.26715,0.2105 10.26715,0.2104 1.24599,1.5405 1.24599,1.5406 v 4.4571 4.457 l -0.76581,0.4733 -0.76581,0.4733 -10.95085,-0.1458 -10.95084,-0.1458 -0.19248,4.7683 -0.19248,4.7684 -2.12081,0.2045 -2.1208,0.2044 z m 23.16571,-5.9609 v -1.9577 l -9.29891,-0.1811 -9.29891,-0.181 v 2.3198 2.3197 l 9.29891,-0.181 9.29891,-0.1811 z m -4.40475,13.7704 -2.44708,-2.1628 v -1.0498 -1.0499 l 1.34808,-0.7215 1.34809,-0.7214 3.64203,2.8193 c 2.00312,1.5506 4.25957,3.3267 5.01433,3.9468 l 1.3723,1.1274 -3.91533,-0.013 -3.91533,-0.013 z m 15.97812,1.5408 -1.47774,-0.5937 -0.64307,-1.6914 -0.64306,-1.6914 v -8.767 -8.767 l 0.48941,0.024 c 0.26918,0.013 1.29696,1.0881 2.28395,2.389 l 1.79452,2.3652 v 5.6374 5.6374 l 0.78307,0.7831 0.78307,0.7831 h 8.31419 8.3142 l 0.45365,-0.7341 c 0.24952,-0.4037 0.57804,-3.2668 0.73006,-6.3624 l 0.2764,-5.6284 1.68934,-2.4589 c 0.92914,-1.3524 1.84338,-2.3048 2.03165,-2.1165 0.42274,0.4227 0.20709,17.881 -0.23866,19.322 l -0.32262,1.043 -1.64955,0.7516 -1.64955,0.7516 -9.92076,-0.041 -9.92076,-0.041 z m 53.3432,-0.4501 c -0.8845,-0.6195 -5.428,-4.1834 -10.09667,-7.9198 l -8.48847,-6.7933 -0.32628,5.2013 -0.32628,5.2013 -1.82774,2.3922 c -1.00525,1.3157 -1.95961,2.3922 -2.1208,2.3922 -0.16119,0 -0.29307,-4.6881 -0.29307,-10.4179 v -10.4179 l 1.34887,-0.7219 1.34887,-0.7219 1.67475,1.0973 c 0.92111,0.6035 5.52641,4.1858 10.23399,7.9606 l 8.55923,6.8633 0.35762,-5.1409 0.35761,-5.1409 0.72392,-1.3124 c 0.39815,-0.7218 1.33841,-1.8685 2.08946,-2.5482 l 1.36556,-1.2358 v 10.5191 10.519 l -1.26221,0.6755 c -1.59522,0.8538 -1.42216,0.8773 -3.31836,-0.4509 z"
         id="path556186" /></g></g></svg>
