<?xml version="1.0" encoding="UTF-8" standalone="no"?>
<!-- Created with Inkscape (http://www.inkscape.org/) -->

<svg
   width="95.865067mm"
   height="28.250278mm"
   viewBox="0 0 95.865067 28.250278"
   version="1.1"
   id="svg1"
   xml:space="preserve"
   inkscape:version="1.3.2 (091e20e, 2023-11-25, custom)"
   sodipodi:docname="dibujologos.svg"
   xmlns:inkscape="http://www.inkscape.org/namespaces/inkscape"
   xmlns:sodipodi="http://sodipodi.sourceforge.net/DTD/sodipodi-0.dtd"
   xmlns="http://www.w3.org/2000/svg"
   xmlns:svg="http://www.w3.org/2000/svg"><sodipodi:namedview
     id="namedview1"
     pagecolor="#ffffff"
     bordercolor="#000000"
     borderopacity="0.25"
     inkscape:showpageshadow="2"
     inkscape:pageopacity="0.0"
     inkscape:pagecheckerboard="0"
     inkscape:deskcolor="#d1d1d1"
     inkscape:document-units="mm"
     showguides="false"
     inkscape:zoom="2"
     inkscape:cx="-169.25"
     inkscape:cy="-2043.75"
     inkscape:window-width="1920"
     inkscape:window-height="1009"
     inkscape:window-x="-8"
     inkscape:window-y="2108"
     inkscape:window-maximized="1"
     inkscape:current-layer="use1"><sodipodi:guide
       position="398.71946,-88.244613"
       orientation="0,-1"
       id="guide189"
       inkscape:locked="false" /><sodipodi:guide
       position="400.70437,-104.89228"
       orientation="0,-1"
       id="guide190"
       inkscape:locked="false" /><sodipodi:guide
       position="416.82688,-92.891353"
       orientation="0,-1"
       id="guide191"
       inkscape:locked="false" /><sodipodi:guide
       position="399.58184,-91.702533"
       orientation="0,-1"
       id="guide192"
       inkscape:locked="false" /><sodipodi:guide
       position="400.1431,-92.544433"
       orientation="0,-1"
       id="guide193"
       inkscape:locked="false" /><sodipodi:guide
       position="409.1457,-95.768703"
       orientation="0,-1"
       id="guide194"
       inkscape:locked="false" /><sodipodi:guide
       position="396.44811,-96.192673"
       orientation="0,-1"
       id="guide195"
       inkscape:locked="false" /><sodipodi:guide
       position="436.85253,-102.03601"
       orientation="0,-1"
       id="guide196"
       inkscape:locked="false" /><sodipodi:guide
       position="437.7455,-103.29278"
       orientation="0,-1"
       id="guide197"
       inkscape:locked="false" /><sodipodi:guide
       position="435.62883,-103.59044"
       orientation="0,-1"
       id="guide198"
       inkscape:locked="false" /><sodipodi:guide
       position="432.83685,-88.101073"
       orientation="1,0"
       id="guide199"
       inkscape:locked="false" /><sodipodi:guide
       position="434.2067,-82.522993"
       orientation="1,0"
       id="guide200"
       inkscape:locked="false" /><sodipodi:guide
       position="441.34938,-97.549053"
       orientation="1,0"
       id="guide201"
       inkscape:locked="false" /><sodipodi:guide
       position="442.89286,-91.983163"
       orientation="1,0"
       id="guide202"
       inkscape:locked="false" /><sodipodi:guide
       position="444.29603,-89.410693"
       orientation="1,0"
       id="guide203"
       inkscape:locked="false" /><sodipodi:guide
       position="444.62343,-89.644553"
       orientation="1,0"
       id="guide204"
       inkscape:locked="false" /><sodipodi:guide
       position="446.07338,-86.230193"
       orientation="1,0"
       id="guide205"
       inkscape:locked="false" /><sodipodi:guide
       position="402.62203,-82.441643"
       orientation="1,0"
       id="guide206"
       inkscape:locked="false" /><sodipodi:guide
       position="404.3526,-82.909363"
       orientation="1,0"
       id="guide207"
       inkscape:locked="false" /><sodipodi:guide
       position="406.08317,-83.657723"
       orientation="1,0"
       id="guide208"
       inkscape:locked="false" /><sodipodi:guide
       position="409.63786,-84.172223"
       orientation="1,0"
       id="guide209"
       inkscape:locked="false" /><sodipodi:guide
       position="411.0878,-83.377093"
       orientation="1,0"
       id="guide210"
       inkscape:locked="false" /><sodipodi:guide
       position="412.95735,-99.530743"
       orientation="1,0"
       id="guide211"
       inkscape:locked="false" /><sodipodi:guide
       position="414.64248,-88.147843"
       orientation="1,0"
       id="guide212"
       inkscape:locked="false" /><sodipodi:guide
       position="412.51913,-99.853203"
       orientation="1,0"
       id="guide213"
       inkscape:locked="false" /><sodipodi:guide
       position="401.59304,-91.188033"
       orientation="0,-1"
       id="guide214"
       inkscape:locked="false" /><sodipodi:guide
       position="400.61083,-94.602413"
       orientation="0,-1"
       id="guide215"
       inkscape:locked="false" /><sodipodi:guide
       position="422.44928,-95.917523"
       orientation="0,-1"
       id="guide216"
       inkscape:locked="false" /><sodipodi:guide
       position="400.47051,-97.502283"
       orientation="0,-1"
       id="guide217"
       inkscape:locked="false" /><sodipodi:guide
       position="417.3085,-85.575383"
       orientation="1,0"
       id="guide218"
       inkscape:locked="false" /><sodipodi:guide
       position="418.89874,-86.464053"
       orientation="1,0"
       id="guide219"
       inkscape:locked="false" /><sodipodi:guide
       position="419.74064,-87.867213"
       orientation="1,0"
       id="guide220"
       inkscape:locked="false" /><sodipodi:guide
       position="421.37767,-87.867213"
       orientation="1,0"
       id="guide221"
       inkscape:locked="false" /><sodipodi:guide
       position="423.62273,-89.925193"
       orientation="1,0"
       id="guide222"
       inkscape:locked="false" /><sodipodi:guide
       position="425.21299,-91.000953"
       orientation="1,0"
       id="guide223"
       inkscape:locked="false" /><sodipodi:guide
       position="426.10166,-90.252593"
       orientation="1,0"
       id="guide224"
       inkscape:locked="false" /><sodipodi:guide
       position="427.60422,-104.34856"
       orientation="1,0"
       id="guide225"
       inkscape:locked="false" /><sodipodi:guide
       position="430.77887,-95.257213"
       orientation="1,0"
       id="guide226"
       inkscape:locked="false" /><sodipodi:guide
       position="432.42076,-85.631853"
       orientation="1,0"
       id="guide227"
       inkscape:locked="false" /><sodipodi:guide
       position="441.91066,-93.666973"
       orientation="1,0"
       id="guide228"
       inkscape:locked="false" /><sodipodi:guide
       position="443.82831,-96.566833"
       orientation="1,0"
       id="guide229"
       inkscape:locked="false" /><sodipodi:guide
       position="445.13793,-100.77633"
       orientation="1,0"
       id="guide230"
       inkscape:locked="false" /><sodipodi:guide
       position="432.60299,-88.802653"
       orientation="0,-1"
       id="guide231"
       inkscape:locked="false" /><sodipodi:guide
       position="408.18792,-91.047723"
       orientation="1,0"
       id="guide232"
       inkscape:locked="false" /><sodipodi:guide
       position="405.62714,-89.819953"
       orientation="0,-1"
       id="guide233"
       inkscape:locked="false" /><sodipodi:guide
       position="407.55819,-93.957943"
       orientation="0,-1"
       id="guide234"
       inkscape:locked="false" /><sodipodi:guide
       position="409.11262,-94.553263"
       orientation="1,0"
       id="guide235"
       inkscape:locked="false" /><sodipodi:guide
       position="410.27844,-95.198193"
       orientation="1,0"
       id="guide236"
       inkscape:locked="false" /><sodipodi:guide
       position="429.34497,-95.586783"
       orientation="1,0"
       id="guide237"
       inkscape:locked="false" /><sodipodi:guide
       position="443.40923,-90.700263"
       orientation="1,0"
       id="guide238"
       inkscape:locked="false" /><sodipodi:guide
       position="427.84977,-102.26719"
       orientation="1,0"
       id="guide239"
       inkscape:locked="false" /><sodipodi:guide
       position="415.81178,-100.47231"
       orientation="1,0"
       id="guide240"
       inkscape:locked="false" /><sodipodi:guide
       position="417.65928,-102.17949"
       orientation="1,0"
       id="guide241"
       inkscape:locked="false" /><sodipodi:guide
       position="419.34308,-101.89886"
       orientation="1,0"
       id="guide242"
       inkscape:locked="false" /><sodipodi:guide
       position="425.82102,-104.21408"
       orientation="1,0"
       id="guide243"
       inkscape:locked="false" /><sodipodi:guide
       position="427.45805,-102.92785"
       orientation="1,0"
       id="guide244"
       inkscape:locked="false" /><sodipodi:guide
       position="422.57036,-105.75756"
       orientation="1,0"
       id="guide245"
       inkscape:locked="false" /><sodipodi:guide
       position="414.73602,-96.286203"
       orientation="0,-1"
       id="guide246"
       inkscape:locked="false" /><sodipodi:guide
       position="415.96698,-94.280403"
       orientation="0,-1"
       id="guide247"
       inkscape:locked="false" /><sodipodi:guide
       position="414.2683,-98.858673"
       orientation="0,-1"
       id="guide248"
       inkscape:locked="false" /><sodipodi:guide
       position="421.65831,-103.75806"
       orientation="0,-1"
       id="guide249"
       inkscape:locked="false" /><sodipodi:guide
       position="420.40715,-103.46573"
       orientation="0,-1"
       id="guide250"
       inkscape:locked="false" /><sodipodi:guide
       position="415.4376,-101.95733"
       orientation="1,0"
       id="guide252"
       inkscape:locked="false" /><sodipodi:guide
       position="404.42276,-99.653803"
       orientation="0,-1"
       id="guide253"
       inkscape:locked="false" /><sodipodi:guide
       position="404.04419,-100.61387"
       orientation="1,0"
       id="guide254"
       inkscape:locked="false" /></sodipodi:namedview><defs
     id="defs1" /><g
     inkscape:label="Capa 1"
     inkscape:groupmode="layer"
     id="layer1"
     transform="translate(115.01998,461.24617)"><g
       id="g633646"
       transform="matrix(0.70232489,0,0,0.70232489,-34.238583,-137.30151)"><path
         style="fill:#f7f9fb"
         d="m -106.702,-432.24911 c 0.0809,-0.13092 4.0207,-3.07772 8.755095,-6.54844 l 8.60798,-6.31041 -5.41233,-0.0715 -5.412335,-0.0715 -0.1431,-0.7223 c -0.0787,-0.39726 -0.22031,-1.17068 -0.31467,-1.7187 l -0.17158,-0.9964 23.550445,0.0704 23.550453,0.0704 0.55687,0.50403 c 0.75538,0.68369 0.70617,1.20683 -0.38581,4.1017 -1.28738,3.41289 -1.54546,3.85261 -2.66848,4.54668 l -0.978173,0.60454 -2.20325,0.11564 c -1.21178,0.0636 -2.20325,0.16223 -2.20325,0.21916 0,0.0569 0.74165,1.41989 1.64811,3.02879 l 1.64811,2.92527 0.54057,-0.10334 c 0.29732,-0.0568 5.436993,-3.69691 11.421503,-8.08905 l 10.88092,-7.98571 h 2.8054 c 3.14869,0 3.23692,0.0647 1.66429,1.22004 l -1.12046,0.82317 -2.48295,6.58516 c -1.36563,3.62184 -2.64577,6.91259 -2.84477,7.31277 l -0.36181,0.72761 h -2.50674 -2.50675 v -0.35751 c 0,-0.19663 0.58598,-1.89269 1.30217,-3.76901 1.60312,-4.19992 1.83334,-4.12369 -2.63703,-0.87323 -4.0835,2.96915 -4.20357,3.10278 -3.58353,3.98801 0.23126,0.33017 0.42047,0.69288 0.42047,0.80602 0,0.11315 -3.85495,0.20572 -8.56656,0.20572 h -8.566563 l -0.36313,-0.4293 c -0.19972,-0.23612 -1.08036,-1.69463 -1.95698,-3.24115 l -1.59386,-2.81184 h -2.62421 -2.62421 l -0.88563,2.20936 -0.88562,2.20937 0.51766,0.87737 c 0.28471,0.48255 0.44817,0.94685 0.36324,1.03177 -0.17267,0.17267 -6.94539,0.21688 -6.94539,0.0453 0,-0.06 1.19376,-3.26409 2.65279,-7.1202 l 2.65278,-7.01113 -0.45283,-0.94959 c -0.75837,-1.59032 0.0784,-2.06532 -12.07742,6.85562 l -6.48947,4.7625 5.46383,0.13229 5.46382,0.13229 0.18738,1.05834 c 0.10306,0.58208 0.19424,1.32622 0.20263,1.65364 l 0.0153,0.59532 h -11.52499 -11.524995 z m 46.906015,-10.02943 c 0.29835,-0.18956 1.13227,-2.20051 1.13227,-2.73039 0,-0.12723 -2.72386,-0.23132 -6.05302,-0.23132 h -6.05302 l -0.29344,0.35357 c -0.4185,0.50426 -1.08371,2.47922 -0.8977,2.66522 0.23441,0.23441 11.79148,0.18019 12.16491,-0.0571 z m 26.236243,10.0011 c -0.23558,-0.13765 -0.57848,-0.61276 -0.76199,-1.05581 l -0.33367,-0.80553 2.34949,-6.25 2.34949,-6.24999 1.28053,-1.02053 1.28053,-1.02053 h 8.26961 8.26961 l 0.40388,0.46302 c 0.22214,0.25466 0.5387898,0.72411 0.7036798,1.04321 l 0.2998,0.58019 -0.30827,0.67658 -0.3082698,0.67658 h -7.33347 -7.33346 l -0.29136,0.35106 c -0.38141,0.45957 -3.4776,8.49886 -3.4776,9.02962 v 0.4089 h 7.27604 7.27604 l -0.004,0.46302 c -0.006,0.64278 -0.20787,0.88238 -1.68764,1.99927 l -1.29482,0.9773 -8.09789,-0.008 c -4.5953,-0.005 -8.28315,-0.11629 -8.52621,-0.25831 z m 19.34603,0.0378 c 0,-0.12573 0.46531,-0.55107 1.03403,-0.94519 l 1.03404,-0.71659 1.32567,-3.48658 c 0.72912,-1.91762 1.8227698,-4.77256 2.4303398,-6.3443 l 1.10466,-2.85771 1.32654,-1.04857 1.32654,-1.04857 8.3717,0.0698 8.3716902,0.0698 0.51775,0.96619 0.51775,0.96619 -0.31323,0.68746 -0.31322,0.68745 h -7.4234102 -7.42341 l -0.51976,1.21256 c -0.28587,0.66691 -0.51977,1.38128 -0.51977,1.5875 v 0.37494 h 7.27604 7.2760502 l -0.0109,0.46302 c -0.006,0.25466 -0.27389,0.9988 -0.59532,1.65365 l -0.5844002,1.19062 -7.43932,0.0702 -7.43931,0.0702 -0.56433,1.4747 c -0.31038,0.81108 -0.56433,1.52362 -0.56433,1.58344 0,0.0598 3.34177,0.10874 7.42616,0.10874 h 7.42616 l -0.1825,0.59532 c -0.25627,0.83593 -0.53147,1.13044 -1.90889,2.0428 l -1.20999,0.80147 h -9.87651 c -5.43208,0 -9.8765098,-0.10287 -9.8765098,-0.2286 z"
         id="path538408"
         sodipodi:nodetypes="sscccsscccssscssscsscsscsscccsssssscsscccccsssscsscccsscccsssscsssssscccccccsscccccsscccssccsssscsscccccccccccsscccsscccssscsscsss" /><path
         style="fill:#144991"
         d="m -115.01997,-421.02234 v -19.48671 -20.36318 l 136.496748,-0.37394 -0.0341,21.97495 -0.0278,18.24902 z m 31.205595,-11.58406 c -0.008,-0.32742 -0.0996,-1.07156 -0.20263,-1.65364 l -0.18738,-1.05834 -5.46382,-0.13229 -5.46383,-0.13229 6.48947,-4.7625 c 12.15584,-8.92094 11.31905,-8.44594 12.07742,-6.85562 l 0.45283,0.94959 -2.65278,7.01113 c -1.45903,3.85611 -2.65279,7.0602 -2.65279,7.1202 0,0.17154 6.77272,0.12733 6.94539,-0.0453 0.0849,-0.0849 -0.0785,-0.54922 -0.36324,-1.03177 l -0.51766,-0.87737 0.88562,-2.20937 0.88563,-2.20936 h 2.62421 2.62421 l 1.59386,2.81184 c 0.87662,1.54652 1.75726,3.00503 1.95698,3.24115 l 0.36313,0.4293 h 8.566563 c 4.71161,0 8.56656,-0.0926 8.56656,-0.20572 0,-0.11314 -0.18921,-0.47585 -0.42047,-0.80602 -0.62004,-0.88523 -0.49997,-1.01886 3.58353,-3.98801 4.47037,-3.25046 4.24015,-3.32669 2.63703,0.87323 -0.71619,1.87632 -1.30217,3.57238 -1.30217,3.76901 v 0.35751 h 2.50675 2.50674 l 0.36181,-0.72761 c 0.199,-0.40018 1.47914,-3.69093 2.84477,-7.31277 l 2.48295,-6.58516 1.12046,-0.82317 c 1.57263,-1.15536 1.4844,-1.22004 -1.66429,-1.22004 h -2.8054 l -10.88092,7.98571 c -5.98451,4.39214 -11.124183,8.03221 -11.421503,8.08905 l -0.54057,0.10334 -1.64811,-2.92527 c -0.90646,-1.6089 -1.64811,-2.97185 -1.64811,-3.02879 0,-0.0569 0.99146,-0.15556 2.20325,-0.21916 l 2.20325,-0.11564 0.978173,-0.60454 c 1.12302,-0.69407 1.3811,-1.13379 2.66848,-4.54668 1.09198,-2.89487 1.14119,-3.41801 0.38581,-4.1017 l -0.55688,-0.50403 -23.550443,-0.0704 -23.550445,-0.0704 0.17158,0.9964 c 0.0944,0.54802 0.23597,1.32144 0.31467,1.7187 l 0.1431,0.7223 5.412335,0.0715 5.41233,0.0715 -8.60798,6.31041 c -4.734395,3.47072 -8.674185,6.41752 -8.755095,6.54844 l -0.14712,0.23803 h 11.524995 11.52499 z m 11.85348,-9.61506 c -0.18601,-0.186 0.4792,-2.16096 0.8977,-2.66522 l 0.29344,-0.35357 h 6.05302 c 3.32916,0 6.05302,0.10409 6.05302,0.23132 0,0.52988 -0.83392,2.54083 -1.13227,2.73039 -0.37343,0.23727 -11.9305,0.29149 -12.16491,0.0571 z m 56.320073,9.23308 c 1.47977,-1.11689 1.68202,-1.35649 1.68764,-1.99927 l 0.004,-0.46302 h -7.27604 -7.27604 v -0.4089 c 0,-0.53076 3.09619,-8.57005 3.4776,-9.02962 l 0.29136,-0.35106 h 7.33346 7.33347 l 0.3082698,-0.67658 0.30827,-0.67658 -0.2998,-0.58019 c -0.16489,-0.3191 -0.4815498,-0.78855 -0.7036798,-1.04321 l -0.40388,-0.46302 h -8.26961 -8.26961 l -1.28053,1.02053 -1.28053,1.02053 -2.34949,6.24999 -2.34949,6.25 0.33367,0.80553 c 0.53003,1.27962 0.71364,1.3056 9.2882,1.31412 l 8.09789,0.008 z m 22.3901298,0.17583 c 1.37741,-0.91236 1.65261,-1.20687 1.90888,-2.0428 l 0.18251,-0.59532 h -7.42617 c -4.08439,0 -7.42616,-0.0489 -7.42616,-0.10874 0,-0.0598 0.25395,-0.77236 0.56433,-1.58344 l 0.56434,-1.4747 7.43931,-0.0702 7.43931,-0.0702 0.5844102,-1.19062 c 0.32142,-0.65485 0.58931,-1.39899 0.59531,-1.65365 l 0.0109,-0.46302 h -7.2760502 -7.27604 v -0.37494 c 0,-0.20622 0.2339,-0.92059 0.51977,-1.5875 l 0.51976,-1.21256 h 7.42341 7.4234102 l 0.31322,-0.68745 0.31323,-0.68746 -0.51775,-0.96619 -0.51775,-0.96619 -8.3716902,-0.0698 -8.3717,-0.0698 -1.32654,1.04857 -1.32654,1.04857 -1.10466,2.85771 c -0.60757,1.57174 -1.7012198,4.42668 -2.4303398,6.3443 l -1.32567,3.48658 -1.03404,0.71659 c -1.66228,1.15196 -1.49786,1.17379 8.8424798,1.17379 h 9.87651 z"
         id="path538407"
         sodipodi:nodetypes="cccccccsscccsscsssscccccsscsssssscccsscsscsscssscssscccsscccsscccssscssssssscccsscccccsscccccccsscssscssscccsscccsscccccccccccsscsscs"
         inkscape:export-filename="..\..\Bati\Bali\bali-cycles\public\assets\images\partners\zrace.svg"
         inkscape:export-xdpi="95.779999"
         inkscape:export-ydpi="95.779999" /></g></g></svg>
